<?xml version="1.0" standalone="no"?>
<!DOCTYPE svg PUBLIC "-//W3C//DTD SVG 1.1//EN" "http://www.w3.org/Graphics/SVG/1.1/DTD/svg11.dtd">
<svg version="1.1" xmlns="http://www.w3.org/2000/svg" viewBox="0 0 197.5319991225433 225.46316552381677" width="197.5319991225433" height="225.46316552381677"><!-- svg-source:excalidraw --><metadata></metadata><defs><style class="style-fonts">
      </style></defs><rect x="0" y="0" width="197.5319991225433" height="225.46316552381677" fill="#ffffff"></rect><g transform="translate(18.16239076425427 103.23029251531261) rotate(0 80.60360879701739 49.99464343106092)" stroke="none"><path fill="#1e1e1e" d="M 0,-3.32 Q 0,-3.32 3.22,-3.43 6.45,-3.55 9.58,-3.65 12.71,-3.75 16.55,-3.96 20.39,-4.16 24.69,-4.45 28.99,-4.73 34.89,-5.40 40.80,-6.06 47.19,-6.61 53.59,-7.17 60.36,-7.96 67.12,-8.76 73.87,-9.38 80.62,-10.00 87.89,-10.55 95.17,-11.09 102.66,-11.61 110.16,-12.13 117.50,-12.34 124.84,-12.56 130.89,-12.65 136.94,-12.74 142.45,-12.77 147.96,-12.80 152.06,-12.85 156.16,-12.90 159.22,-13.37 162.29,-13.85 166.11,-13.72 169.93,-13.60 171.68,-10.48 173.43,-7.35 173.32,-4.60 173.22,-1.85 173.18,0.71 173.15,3.28 173.09,6.44 173.02,9.60 172.64,13.19 172.25,16.78 171.89,21.02 171.52,25.26 171.28,30.02 171.04,34.78 170.88,39.74 170.72,44.70 170.61,49.74 170.50,54.78 170.42,59.86 170.35,64.93 170.30,69.14 170.26,73.35 170.24,77.49 170.23,81.63 170.34,85.14 170.46,88.66 170.65,91.33 170.85,94.00 171.60,97.71 172.36,101.41 172.31,105.33 172.26,109.25 169.53,110.66 166.81,112.07 163.83,112.53 160.86,113.00 158.61,113.21 156.37,113.42 153.63,113.47 150.90,113.51 147.70,113.44 144.49,113.37 140.67,113.40 136.84,113.44 131.50,113.30 126.16,113.16 120.49,113.30 114.81,113.43 108.49,113.43 102.16,113.43 95.08,113.38 88.00,113.33 80.30,113.27 72.60,113.22 65.51,113.17 58.42,113.12 52.19,113.08 45.95,113.04 40.14,113.30 34.33,113.56 29.16,113.67 23.98,113.77 19.43,113.81 14.89,113.84 10.90,113.92 6.91,113.99 3.46,114.14 0.00,114.28 -2.91,114.91 -5.84,115.53 -8.46,113.29 -11.09,111.05 -9.93,107.81 -8.77,104.56 -7.85,100.59 -6.92,96.62 -6.28,92.40 -5.64,88.18 -4.80,84.69 -3.96,81.20 -3.09,76.86 -2.22,72.53 -1.44,67.99 -0.66,63.45 -0.26,59.00 0.13,54.55 0.35,49.73 0.58,44.90 1.02,39.53 1.46,34.16 1.67,29.32 1.88,24.49 1.99,19.79 2.10,15.10 2.06,11.34 2.01,7.58 1.90,4.23 1.79,0.87 1.61,-1.72 1.43,-4.32 1.17,-8.28 0.91,-12.24 1.02,-12.91 1.13,-13.58 1.44,-14.18 1.76,-14.78 2.25,-15.24 2.75,-15.71 3.36,-15.99 3.98,-16.28 4.65,-16.35 5.33,-16.42 5.99,-16.28 6.65,-16.13 7.23,-15.78 7.81,-15.43 8.25,-14.91 8.69,-14.40 8.94,-13.77 9.19,-13.14 9.23,-12.46 9.26,-11.78 9.08,-11.13 8.90,-10.48 8.52,-9.92 8.14,-9.36 7.60,-8.95 7.06,-8.54 6.41,-8.32 5.77,-8.10 5.09,-8.10 4.42,-8.10 3.77,-8.32 3.13,-8.54 2.59,-8.95 2.05,-9.36 1.67,-9.92 1.29,-10.48 1.11,-11.14 0.93,-11.79 0.97,-12.47 1.01,-13.14 1.26,-13.77 1.51,-14.40 1.95,-14.92 2.39,-15.43 2.97,-15.78 3.55,-16.13 4.21,-16.28 4.87,-16.42 5.55,-16.35 6.22,-16.27 6.84,-15.99 7.45,-15.70 7.94,-15.24 8.43,-14.77 8.75,-14.17 9.07,-13.57 9.18,-12.90 9.29,-12.24 9.29,-12.24 9.29,-12.24 9.02,-8.27 8.75,-4.31 8.56,-1.70 8.37,0.89 8.24,4.26 8.10,7.62 8.01,11.40 7.91,15.17 7.90,19.92 7.89,24.66 7.82,29.61 7.75,34.56 7.51,39.80 7.28,45.03 7.31,49.98 7.34,54.92 7.28,59.65 7.22,64.38 6.91,69.02 6.61,73.66 6.30,78.51 5.99,83.35 5.44,86.26 4.90,89.17 4.58,92.30 4.27,95.44 3.55,97.94 2.82,100.43 1.64,103.70 0.45,106.96 -1.65,109.41 -3.76,111.86 -5.39,109.96 -7.03,108.05 -3.52,108.08 -0.00,108.10 3.43,108.23 6.88,108.36 10.85,108.38 14.82,108.41 19.34,108.34 23.85,108.27 28.95,108.13 34.05,107.98 40.00,107.65 45.94,107.32 52.18,107.27 58.41,107.22 65.49,107.15 72.57,107.08 80.26,106.97 87.94,106.86 94.97,106.68 102.00,106.51 108.18,106.21 114.36,105.91 120.16,105.35 125.95,104.80 131.04,104.40 136.13,104.00 140.27,103.43 144.41,102.85 147.54,102.74 150.67,102.62 154.95,102.50 159.22,102.39 161.51,103.45 163.80,104.52 163.93,101.81 164.06,99.10 163.93,96.55 163.80,94.00 164.00,91.33 164.19,88.66 164.31,85.14 164.42,81.63 164.41,77.49 164.40,73.35 164.36,69.14 164.31,64.93 164.25,59.85 164.18,54.77 164.09,49.72 164.00,44.66 163.89,39.68 163.78,34.69 163.65,29.86 163.52,25.02 163.42,20.49 163.31,15.96 163.55,12.72 163.79,9.47 163.81,6.21 163.82,2.95 163.99,0.08 164.15,-2.77 163.51,-5.24 162.87,-7.70 159.53,-7.57 156.18,-7.44 152.09,-7.46 148.00,-7.47 142.51,-7.42 137.03,-7.37 131.02,-7.27 125.01,-7.16 117.78,-6.92 110.55,-6.68 103.08,-6.13 95.61,-5.57 88.39,-4.98 81.17,-4.38 74.50,-3.69 67.84,-3.01 61.01,-2.10 54.17,-1.20 47.89,-0.52 41.60,0.16 35.61,1.02 29.63,1.89 25.27,2.44 20.92,2.99 16.81,3.37 12.71,3.75 9.58,3.65 6.45,3.55 3.22,3.43 0,3.32 -0.39,3.27 -0.79,3.22 -1.17,3.08 -1.54,2.94 -1.87,2.71 -2.20,2.48 -2.47,2.18 -2.73,1.88 -2.92,1.53 -3.10,1.17 -3.20,0.78 -3.30,0.40 -3.30,-0.00 -3.30,-0.40 -3.20,-0.79 -3.10,-1.17 -2.92,-1.53 -2.73,-1.88 -2.47,-2.18 -2.20,-2.48 -1.87,-2.71 -1.54,-2.94 -1.17,-3.08 -0.79,-3.22 -0.39,-3.27 0.00,-3.32 0.00,-3.32 L 0,-3.32 Z"></path></g><g transform="translate(92.8669610745319 92.10540376927611) rotate(0 21.90895489180184 -29.353745389016012)" stroke="none"><path fill="#1e1e1e" d="M -5.26,-0.43 Q -5.26,-0.43 -5.22,-1.91 -5.18,-3.38 -5.29,-5.85 -5.40,-8.31 -5.54,-10.69 -5.68,-13.07 -5.62,-15.73 -5.57,-18.39 -5.56,-21.06 -5.55,-23.74 -4.89,-27.67 -4.24,-31.60 -2.98,-35.15 -1.72,-38.71 0.47,-42.25 2.68,-45.80 4.81,-48.19 6.94,-50.58 9.46,-52.71 11.98,-54.84 15.01,-56.46 18.04,-58.07 21.31,-59.29 24.58,-60.51 27.89,-61.42 31.20,-62.34 34.21,-62.98 37.23,-63.62 39.52,-64.39 41.82,-65.17 42.90,-65.32 43.99,-65.47 45.06,-65.26 46.14,-65.06 47.09,-64.52 48.04,-63.98 48.77,-63.17 49.51,-62.35 49.94,-61.35 50.38,-60.35 50.47,-59.25 50.56,-58.16 50.29,-57.10 50.03,-56.04 49.44,-55.12 48.86,-54.19 48.00,-53.51 47.15,-52.82 46.12,-52.44 45.10,-52.06 44.00,-52.03 42.91,-52.00 41.86,-52.32 40.82,-52.64 39.93,-53.27 39.04,-53.91 38.40,-54.80 37.76,-55.69 37.43,-56.73 37.11,-57.78 37.14,-58.87 37.17,-59.97 37.54,-61.00 37.92,-62.02 38.60,-62.88 39.29,-63.73 40.21,-64.32 41.13,-64.91 42.19,-65.18 43.25,-65.44 44.35,-65.36 45.44,-65.27 46.44,-64.84 47.45,-64.41 48.26,-63.68 49.08,-62.95 49.62,-62.00 50.16,-61.04 50.37,-59.97 50.57,-58.90 50.43,-57.81 50.28,-56.73 49.80,-55.74 49.31,-54.76 48.54,-53.99 47.77,-53.21 46.79,-52.73 45.81,-52.24 45.81,-52.24 45.81,-52.24 42.84,-51.36 39.88,-50.48 37.35,-50.00 34.81,-49.51 31.72,-48.64 28.63,-47.77 26.01,-46.80 23.39,-45.83 20.79,-44.45 18.19,-43.06 16.38,-41.35 14.58,-39.63 13.03,-37.89 11.48,-36.16 10.32,-33.78 9.17,-31.40 8.41,-28.67 7.64,-25.94 7.37,-23.11 7.10,-20.27 6.81,-16.67 6.53,-13.06 6.38,-10.61 6.23,-8.17 5.95,-5.32 5.67,-2.48 5.46,-1.02 5.26,0.43 5.13,1.06 5.00,1.68 4.73,2.26 4.45,2.83 4.05,3.32 3.64,3.81 3.13,4.19 2.62,4.58 2.04,4.82 1.45,5.07 0.82,5.17 0.19,5.27 -0.43,5.22 -1.07,5.17 -1.67,4.96 -2.27,4.76 -2.81,4.42 -3.35,4.08 -3.79,3.62 -4.23,3.16 -4.54,2.60 -4.86,2.05 -5.04,1.44 -5.21,0.83 -5.23,0.19 -5.26,-0.43 -5.26,-0.43 L -5.26,-0.43 Z"></path></g><g transform="translate(92.0161278748501 84.02248837230036) rotate(0 -37.01124418615018 -32.75707818774208)" stroke="none"><path fill="#1e1e1e" d="M -5.30,-0.40 Q -5.30,-0.40 -5.25,-2.00 -5.20,-3.59 -5.42,-5.87 -5.63,-8.15 -7.08,-10.97 -8.52,-13.78 -9.98,-16.18 -11.43,-18.57 -13.53,-21.31 -15.62,-24.06 -18.16,-27.21 -20.70,-30.36 -22.19,-32.09 -23.68,-33.82 -25.30,-35.59 -26.92,-37.36 -28.68,-39.25 -30.45,-41.13 -32.26,-42.81 -34.08,-44.49 -36.07,-46.45 -38.06,-48.41 -39.86,-49.97 -41.66,-51.53 -43.64,-53.20 -45.63,-54.87 -47.61,-56.38 -49.59,-57.89 -51.37,-59.08 -53.15,-60.27 -56.52,-62.04 -59.89,-63.81 -62.44,-64.91 -64.98,-66.00 -67.52,-66.65 -70.06,-67.30 -68.83,-69.49 -67.60,-71.67 -67.61,-69.31 -67.62,-66.95 -67.54,-64.27 -67.46,-61.60 -67.43,-58.58 -67.40,-55.57 -67.04,-52.07 -66.67,-48.58 -66.00,-46.49 -65.32,-44.39 -64.10,-41.42 -62.89,-38.45 -61.73,-36.45 -60.57,-34.45 -59.30,-32.67 -58.02,-30.89 -56.65,-29.18 -55.28,-27.46 -53.82,-25.82 -52.35,-24.18 -50.40,-22.39 -48.45,-20.60 -46.57,-19.08 -44.69,-17.56 -42.90,-16.07 -41.11,-14.58 -38.64,-12.82 -36.16,-11.05 -33.06,-9.04 -29.96,-7.02 -26.99,-5.31 -24.02,-3.60 -20.96,-2.33 -17.90,-1.07 -15.42,-0.19 -12.94,0.69 -10.66,0.80 -8.39,0.91 -6.75,0.89 -5.10,0.88 -4.24,0.98 -3.38,1.09 -2.57,1.40 -1.75,1.70 -1.04,2.20 -0.33,2.69 0.24,3.34 0.82,3.99 1.22,4.76 1.62,5.53 1.83,6.37 2.04,7.21 2.04,8.08 2.04,8.95 1.83,9.79 1.62,10.63 1.22,11.40 0.81,12.17 0.24,12.82 -0.33,13.47 -1.04,13.96 -1.75,14.45 -2.57,14.76 -3.38,15.07 -4.24,15.17 -5.10,15.28 -8.70,11.57 -12.30,7.86 -12.07,6.72 -11.85,5.57 -11.27,4.56 -10.70,3.55 -9.83,2.77 -8.96,2.00 -7.89,1.54 -6.81,1.09 -5.65,0.99 -4.49,0.90 -3.36,1.19 -2.23,1.47 -1.25,2.10 -0.27,2.74 0.44,3.65 1.17,4.56 1.57,5.65 1.97,6.75 1.99,7.91 2.02,9.07 1.67,10.19 1.33,11.30 0.65,12.24 -0.03,13.19 -0.98,13.86 -1.92,14.54 -3.04,14.88 -4.15,15.21 -5.32,15.18 -6.48,15.14 -7.57,14.74 -8.67,14.33 -9.57,13.60 -10.48,12.87 -11.10,11.88 -11.72,10.90 -12.00,9.77 -12.28,8.64 -12.18,7.48 -12.08,6.32 -11.62,5.25 -11.15,4.18 -10.37,3.31 -9.59,2.45 -8.57,1.88 -7.56,1.31 -6.41,1.10 -5.27,0.88 -4.12,1.04 -2.96,1.20 -1.92,1.72 -0.88,2.25 -0.06,3.07 0.75,3.90 1.27,4.94 1.78,5.99 -1.66,3.43 -5.10,0.88 -4.24,0.98 -3.38,1.09 -2.57,1.40 -1.75,1.70 -1.04,2.20 -0.33,2.69 0.24,3.34 0.81,3.99 1.22,4.76 1.62,5.52 1.83,6.37 2.04,7.21 2.04,8.08 2.04,8.95 1.83,9.79 1.62,10.63 1.22,11.40 0.82,12.17 0.24,12.82 -0.33,13.47 -1.04,13.96 -1.75,14.45 -2.57,14.76 -3.38,15.07 -4.24,15.17 -5.10,15.28 -7.17,15.25 -9.25,15.22 -11.57,15.03 -13.88,14.85 -16.36,14.09 -18.85,13.34 -21.85,12.13 -24.85,10.93 -27.84,9.56 -30.84,8.20 -33.66,6.63 -36.49,5.06 -38.61,3.95 -40.73,2.83 -43.76,0.90 -46.78,-1.02 -49.61,-3.10 -52.44,-5.18 -54.42,-6.95 -56.41,-8.71 -58.76,-10.77 -61.12,-12.82 -62.73,-14.54 -64.33,-16.27 -66.08,-18.24 -67.83,-20.22 -69.47,-22.46 -71.11,-24.71 -72.74,-27.23 -74.38,-29.75 -75.71,-32.37 -77.05,-34.99 -78.32,-38.43 -79.59,-41.87 -80.20,-44.49 -80.82,-47.11 -81.17,-49.37 -81.51,-51.62 -81.49,-54.64 -81.47,-57.66 -81.43,-60.47 -81.39,-63.28 -81.28,-65.76 -81.17,-68.23 -80.86,-70.98 -80.56,-73.72 -79.68,-75.84 -78.81,-77.96 -75.27,-79.20 -71.74,-80.45 -69.39,-79.99 -67.05,-79.54 -64.94,-78.73 -62.83,-77.92 -60.04,-76.71 -57.25,-75.50 -54.16,-73.71 -51.07,-71.92 -48.95,-70.72 -46.83,-69.52 -44.87,-68.15 -42.91,-66.79 -40.71,-65.16 -38.51,-63.54 -36.41,-61.85 -34.30,-60.17 -32.24,-58.43 -30.18,-56.70 -28.27,-54.96 -26.35,-53.21 -24.16,-51.33 -21.96,-49.46 -20.05,-47.60 -18.14,-45.73 -16.28,-43.87 -14.43,-42.00 -12.93,-40.34 -11.42,-38.68 -9.72,-36.82 -8.02,-34.95 -5.58,-31.75 -3.14,-28.56 -1.04,-25.43 1.06,-22.29 2.36,-19.70 3.65,-17.10 4.66,-14.45 5.66,-11.79 5.89,-9.39 6.12,-7.00 5.91,-4.88 5.69,-2.76 5.49,-1.17 5.30,0.40 5.17,1.03 5.04,1.66 4.77,2.24 4.50,2.82 4.10,3.32 3.69,3.82 3.18,4.20 2.67,4.59 2.08,4.84 1.49,5.10 0.86,5.20 0.23,5.31 -0.40,5.26 -1.04,5.21 -1.65,5.01 -2.26,4.81 -2.80,4.47 -3.34,4.13 -3.79,3.67 -4.23,3.20 -4.56,2.65 -4.88,2.10 -5.06,1.48 -5.24,0.87 -5.27,0.23 -5.30,-0.40 -5.30,-0.40 L -5.30,-0.40 Z"></path></g><g transform="translate(55.85571688838172 52.967076583921425) rotate(0 -0.8508331996818015 -1.4889580994426979)" stroke="none"><path fill="#1e1e1e" d="M -3.42,3.42 Q -3.42,3.42 -4.22,2.76 -5.03,2.09 -6.26,-1.01 -7.49,-4.13 -5.09,-6.47 -2.69,-8.81 -0.10,-7.51 2.48,-6.22 4.38,-3.81 6.28,-1.41 5.86,1.06 5.44,3.54 3.29,5.14 1.15,6.75 -1.16,6.33 -3.47,5.90 -3.65,5.45 -3.83,5.00 -4.37,4.47 -4.91,3.93 -5.31,3.29 -5.71,2.64 -5.95,1.92 -6.18,1.20 -6.24,0.44 -6.29,-0.31 -6.16,-1.06 -6.03,-1.81 -5.73,-2.50 -5.42,-3.20 -4.96,-3.80 -4.50,-4.40 -3.91,-4.88 -3.31,-5.35 -2.62,-5.67 -1.93,-5.99 -1.19,-6.14 -0.44,-6.28 0.31,-6.24 1.07,-6.21 1.79,-5.99 2.52,-5.77 3.18,-5.38 3.83,-5.00 4.49,-4.31 5.15,-3.63 5.59,-2.71 6.04,-1.79 6.17,-0.78 6.29,0.22 6.09,1.22 5.89,2.22 5.38,3.10 4.87,3.99 4.11,4.66 3.34,5.34 2.40,5.73 1.46,6.12 0.45,6.20 -0.56,6.27 -1.55,6.02 -2.54,5.76 -3.39,5.21 -4.24,4.65 -4.88,3.85 -5.51,3.05 -5.85,2.09 -6.20,1.13 -6.21,0.11 -6.23,-0.90 -5.92,-1.87 -5.62,-2.84 -5.01,-3.67 -4.41,-4.49 -3.58,-5.08 -2.75,-5.67 -1.77,-5.96 -0.79,-6.25 0.22,-6.21 1.24,-6.17 2.19,-5.81 3.15,-5.45 3.93,-4.81 4.72,-4.16 5.27,-3.30 5.81,-2.43 6.04,-1.44 6.28,-0.45 6.19,0.55 6.10,1.57 5.69,2.50 5.28,3.44 4.59,4.19 3.90,4.94 3.01,5.44 2.12,5.93 1.11,6.11 0.11,6.30 -0.89,6.15 -1.90,6.00 -2.81,5.54 -3.72,5.08 -3.77,5.04 -3.83,5.00 -4.37,4.47 -4.91,3.94 -5.31,3.29 -5.71,2.64 -5.95,1.92 -6.18,1.20 -6.24,0.44 -6.29,-0.31 -6.16,-1.06 -6.03,-1.81 -5.73,-2.50 -5.42,-3.20 -4.96,-3.80 -4.50,-4.40 -3.91,-4.88 -3.31,-5.35 -2.62,-5.67 -1.93,-5.99 -1.19,-6.14 -0.44,-6.28 0.31,-6.24 1.06,-6.21 1.79,-5.99 2.52,-5.77 3.17,-5.38 3.83,-5.00 3.37,-4.37 2.92,-3.74 0.55,-4.21 -1.81,-4.68 -3.40,-1.95 -4.99,0.77 -2.01,0.40 0.96,0.04 1.53,-2.49 2.09,-5.03 2.76,-4.22 3.42,-3.42 3.78,-2.96 4.14,-2.50 4.38,-1.97 4.62,-1.44 4.73,-0.86 4.83,-0.29 4.80,0.29 4.76,0.87 4.59,1.43 4.41,1.98 4.11,2.48 3.81,2.98 3.40,3.40 2.98,3.81 2.48,4.11 1.98,4.41 1.43,4.59 0.87,4.76 0.29,4.80 -0.29,4.83 -0.86,4.73 -1.44,4.62 -1.97,4.38 -2.50,4.14 -2.96,3.78 -3.42,3.42 -3.42,3.42 L -3.42,3.42 Z"></path></g><g transform="translate(35.01030349618213 112.0999839617939) rotate(0 1.2762497995222475 15.102289294348793)" stroke="none"><path fill="#1e1e1e" d="M 5.07,-1.17 Q 5.07,-1.17 5.51,0.40 5.96,1.97 6.62,4.61 7.28,7.26 7.68,9.40 8.09,11.54 8.43,13.81 8.77,16.09 8.89,18.38 9.01,20.68 8.88,23.81 8.75,26.94 8.21,29.22 7.68,31.49 7.33,32.22 6.98,32.96 6.46,33.59 5.95,34.22 5.30,34.71 4.65,35.20 3.90,35.52 3.15,35.84 2.35,35.97 1.54,36.10 0.73,36.03 -0.07,35.97 -0.84,35.71 -1.61,35.45 -2.30,35.01 -2.99,34.58 -3.55,33.99 -4.12,33.41 -4.52,32.70 -4.93,32.00 -5.16,31.21 -5.38,30.43 -5.42,29.62 -5.45,28.80 -5.29,28.01 -5.12,27.21 -5.13,27.23 -5.14,27.25 -4.63,26.28 -4.13,25.31 -3.34,24.55 -2.55,23.79 -1.57,23.32 -0.58,22.86 0.50,22.73 1.58,22.60 2.65,22.83 3.72,23.05 4.66,23.61 5.60,24.17 6.32,24.99 7.03,25.82 7.44,26.83 7.85,27.84 7.92,28.93 7.99,30.02 7.71,31.08 7.42,32.13 6.82,33.04 6.21,33.95 5.35,34.62 4.48,35.29 3.45,35.65 2.42,36.00 1.33,36.01 0.23,36.02 -0.80,35.68 -1.83,35.34 -2.71,34.69 -3.58,34.03 -4.20,33.13 -4.82,32.23 -5.13,31.18 -5.43,30.13 -5.38,29.04 -5.33,27.95 -4.93,26.93 -4.53,25.91 -3.83,25.08 -3.13,24.24 -2.20,23.67 -1.27,23.10 -0.20,22.85 0.85,22.61 1.94,22.72 3.03,22.83 4.02,23.28 5.02,23.73 5.82,24.47 6.61,25.22 7.13,26.18 7.65,27.14 7.84,28.22 8.02,29.30 7.85,30.39 7.68,31.49 7.33,32.22 6.98,32.96 6.46,33.59 5.95,34.22 5.30,34.71 4.65,35.20 3.90,35.52 3.15,35.84 2.35,35.97 1.54,36.10 0.73,36.03 -0.07,35.97 -0.84,35.71 -1.61,35.45 -2.30,35.02 -2.99,34.58 -3.55,33.99 -4.12,33.41 -4.52,32.70 -4.93,32.00 -5.16,31.21 -5.38,30.43 -5.42,29.62 -5.45,28.81 -5.29,28.01 -5.12,27.21 -4.59,25.74 -4.06,24.27 -3.96,21.84 -3.85,19.40 -3.75,16.89 -3.65,14.39 -3.88,11.52 -4.11,8.65 -4.30,6.52 -4.49,4.38 -4.78,2.77 -5.07,1.17 -5.13,0.54 -5.20,-0.07 -5.11,-0.69 -5.03,-1.32 -4.80,-1.90 -4.57,-2.48 -4.20,-2.99 -3.84,-3.50 -3.36,-3.91 -2.89,-4.32 -2.33,-4.61 -1.77,-4.89 -1.16,-5.03 -0.55,-5.17 0.07,-5.16 0.70,-5.15 1.31,-4.99 1.91,-4.83 2.46,-4.53 3.02,-4.23 3.48,-3.81 3.94,-3.39 4.29,-2.87 4.64,-2.34 4.85,-1.75 5.07,-1.16 5.07,-1.17 L 5.07,-1.17 Z"></path></g><g transform="translate(39.26446949459023 109.54748436274895) rotate(0 19.781871892597337 15.314997594269244)" stroke="none"><path fill="#1e1e1e" d="M 1.67,-5.02 Q 1.67,-5.02 3.16,-4.60 4.65,-4.19 6.95,-4.01 9.24,-3.82 11.38,-3.92 13.52,-4.01 16.54,-4.41 19.56,-4.82 22.08,-5.09 24.60,-5.35 27.45,-5.51 30.30,-5.67 32.97,-5.96 35.63,-6.25 39.95,-5.16 44.27,-4.07 45.34,-1.42 46.42,1.23 46.08,3.92 45.75,6.61 45.62,9.53 45.50,12.45 45.48,14.69 45.45,16.92 45.47,19.40 45.49,21.88 45.53,24.12 45.57,26.36 45.23,29.16 44.90,31.96 43.80,34.01 42.71,36.06 40.12,37.02 37.53,37.98 35.00,38.02 32.47,38.06 28.46,37.73 24.46,37.40 21.57,37.10 18.69,36.81 15.02,36.18 11.36,35.54 8.42,35.22 5.49,34.90 2.64,34.54 -0.20,34.17 -1.02,33.95 -1.83,33.72 -2.57,33.30 -3.31,32.89 -3.93,32.30 -4.54,31.72 -5.00,31.01 -5.47,30.30 -5.74,29.50 -6.02,28.70 -6.10,27.85 -6.17,27.01 -6.04,26.17 -5.92,25.33 -5.59,24.55 -5.27,23.77 -4.77,23.09 -4.26,22.40 -3.61,21.86 -2.96,21.32 -2.20,20.95 -1.44,20.58 -0.61,20.40 0.21,20.22 1.06,20.25 1.90,20.27 2.42,20.39 2.93,20.51 3.95,21.02 4.97,21.53 5.77,22.33 6.57,23.14 7.07,24.16 7.57,25.18 7.72,26.31 7.87,27.44 7.66,28.55 7.44,29.67 6.87,30.66 6.31,31.65 5.46,32.40 4.61,33.16 3.57,33.60 2.52,34.05 1.38,34.14 0.25,34.23 -0.84,33.95 -1.95,33.67 -2.90,33.05 -3.86,32.44 -4.57,31.55 -5.28,30.66 -5.67,29.59 -6.05,28.52 -6.08,27.39 -6.11,26.25 -5.77,25.16 -5.43,24.08 -4.77,23.15 -4.10,22.23 -3.17,21.57 -2.25,20.91 -1.16,20.58 -0.07,20.25 1.06,20.29 2.20,20.32 3.26,20.72 4.33,21.11 5.21,21.83 6.10,22.55 6.71,23.51 7.31,24.47 7.59,25.57 7.86,26.68 7.76,27.81 7.66,28.94 7.21,29.99 6.76,31.03 5.99,31.87 5.23,32.72 4.24,33.27 3.25,33.83 2.13,34.04 1.01,34.25 0.40,34.21 -0.20,34.17 -1.02,33.95 -1.83,33.72 -2.57,33.30 -3.31,32.89 -3.93,32.31 -4.54,31.72 -5.00,31.01 -5.46,30.30 -5.74,29.50 -6.02,28.70 -6.10,27.86 -6.17,27.01 -6.04,26.17 -5.92,25.34 -5.59,24.55 -5.27,23.77 -4.77,23.09 -4.26,22.40 -3.61,21.86 -2.96,21.32 -2.20,20.95 -1.44,20.58 -0.61,20.40 0.21,20.22 1.06,20.25 1.90,20.27 3.30,20.42 4.69,20.57 7.43,20.90 10.18,21.23 13.54,21.65 16.91,22.07 20.05,22.35 23.19,22.62 25.83,22.92 28.47,23.21 30.92,24.03 33.36,24.85 32.14,27.28 30.92,29.70 30.97,27.33 31.03,24.96 31.06,22.67 31.10,20.39 31.14,17.54 31.18,14.70 31.41,12.14 31.64,9.59 33.06,7.11 34.48,4.63 37.52,5.66 40.55,6.70 38.30,6.93 36.04,7.17 33.31,7.31 30.59,7.45 28.34,7.47 26.10,7.49 23.56,7.64 21.03,7.80 18.62,7.92 16.20,8.04 13.75,8.07 11.30,8.10 8.58,7.67 5.85,7.24 3.53,6.69 1.21,6.15 -0.22,5.58 -1.67,5.02 -2.24,4.74 -2.82,4.47 -3.32,4.07 -3.81,3.66 -4.19,3.15 -4.58,2.64 -4.83,2.06 -5.08,1.47 -5.18,0.84 -5.28,0.21 -5.23,-0.42 -5.18,-1.05 -4.98,-1.66 -4.78,-2.26 -4.44,-2.80 -4.10,-3.34 -3.64,-3.78 -3.18,-4.22 -2.62,-4.54 -2.07,-4.86 -1.46,-5.04 -0.85,-5.22 -0.21,-5.24 0.42,-5.27 1.04,-5.14 1.67,-5.01 1.67,-5.01 L 1.67,-5.02 Z"></path></g><g transform="translate(147.74570245399627 104.4424851646595) rotate(0 -1.0635414996017971 17.016663993632392)" stroke="none"><path fill="#1e1e1e" d="M 5.24,0 Q 5.24,0 5.31,1.71 5.39,3.42 5.58,6.04 5.78,8.67 5.92,10.84 6.06,13.00 6.18,15.45 6.30,17.90 6.40,20.25 6.50,22.60 6.19,25.54 5.88,28.47 5.37,30.69 4.86,32.91 4.53,34.50 4.20,36.09 3.81,36.81 3.42,37.53 2.87,38.14 2.32,38.74 1.64,39.20 0.96,39.66 0.19,39.94 -0.57,40.22 -1.39,40.31 -2.20,40.40 -3.01,40.29 -3.82,40.18 -4.59,39.89 -5.35,39.59 -6.02,39.11 -6.69,38.64 -7.22,38.02 -7.76,37.40 -8.13,36.67 -8.51,35.94 -8.69,35.14 -8.88,34.34 -8.87,33.53 -8.86,32.71 -8.66,31.91 -8.45,31.12 -8.53,33.39 -8.60,35.66 -8.76,34.57 -8.92,33.48 -8.72,32.40 -8.52,31.31 -7.99,30.35 -7.46,29.39 -6.65,28.65 -5.83,27.91 -4.83,27.46 -3.82,27.02 -2.72,26.92 -1.63,26.82 -0.56,27.08 0.50,27.34 1.43,27.92 2.36,28.50 3.06,29.35 3.76,30.21 4.14,31.24 4.53,32.26 4.57,33.36 4.61,34.46 4.30,35.52 3.98,36.57 3.35,37.47 2.72,38.37 1.83,39.02 0.94,39.67 -0.10,40.00 -1.15,40.33 -2.25,40.31 -3.35,40.29 -4.38,39.92 -5.42,39.55 -6.28,38.87 -7.14,38.19 -7.74,37.26 -8.34,36.34 -8.62,35.28 -8.89,34.21 -8.81,33.12 -8.73,32.02 -8.31,31.00 -7.88,29.99 -7.15,29.17 -6.43,28.34 -5.47,27.79 -4.52,27.24 -3.44,27.03 -2.36,26.81 -1.27,26.95 -0.18,27.09 0.80,27.57 1.79,28.05 2.57,28.82 3.36,29.59 3.78,32.84 4.20,36.09 3.81,36.81 3.42,37.53 2.87,38.13 2.32,38.74 1.64,39.20 0.96,39.66 0.19,39.94 -0.57,40.22 -1.38,40.31 -2.20,40.40 -3.01,40.29 -3.82,40.18 -4.59,39.89 -5.35,39.59 -6.02,39.11 -6.69,38.64 -7.22,38.02 -7.76,37.40 -8.13,36.67 -8.51,35.94 -8.69,35.14 -8.88,34.35 -8.87,33.53 -8.86,32.71 -8.66,31.91 -8.45,31.12 -8.15,29.96 -7.85,28.81 -7.18,25.70 -6.50,22.58 -6.40,20.24 -6.30,17.90 -6.18,15.45 -6.06,13.00 -5.92,10.84 -5.78,8.67 -5.58,6.04 -5.39,3.42 -5.31,1.71 -5.24,0 -5.16,-0.62 -5.08,-1.25 -4.86,-1.84 -4.64,-2.43 -4.28,-2.95 -3.92,-3.47 -3.44,-3.89 -2.97,-4.31 -2.41,-4.60 -1.85,-4.90 -1.24,-5.05 -0.63,-5.20 0.00,-5.20 0.63,-5.20 1.24,-5.05 1.85,-4.90 2.41,-4.60 2.97,-4.31 3.45,-3.89 3.92,-3.47 4.28,-2.95 4.64,-2.43 4.86,-1.84 5.08,-1.25 5.16,-0.62 5.24,0.00 5.24,0.00 L 5.24,0 Z"></path></g><g transform="translate(150.29820205304077 105.71873496418175) rotate(0 12.762497995224294 19.994580192518015)" stroke="none"><path fill="#1e1e1e" d="M 0,-5.22 Q 0,-5.22 1.22,-5.30 2.44,-5.39 4.74,-5.57 7.03,-5.75 9.63,-5.70 12.22,-5.66 14.49,-5.78 16.75,-5.91 19.18,-6.04 21.61,-6.18 24.51,-5.92 27.41,-5.67 29.77,-3.27 32.13,-0.86 32.00,1.77 31.87,4.42 31.83,7.32 31.79,10.22 31.64,12.82 31.49,15.42 31.10,18.51 30.70,21.60 30.29,23.96 29.87,26.31 29.65,29.24 29.43,32.16 29.44,34.31 29.45,36.46 29.48,38.05 29.51,39.65 29.40,40.53 29.29,41.42 28.98,42.25 28.66,43.08 28.16,43.82 27.65,44.55 26.98,45.14 26.32,45.73 25.53,46.15 24.74,46.56 23.87,46.77 23.01,46.99 22.12,46.99 21.22,46.99 20.36,46.77 19.49,46.56 18.70,46.14 17.92,45.73 17.25,45.14 16.58,44.55 16.08,43.81 15.57,43.08 15.25,42.25 14.94,41.41 14.83,40.53 14.72,39.65 17.80,43.30 20.87,46.95 17.67,46.07 14.47,45.20 11.77,44.43 9.06,43.67 5.91,43.04 2.75,42.41 1.31,42.37 -0.12,42.33 -1.31,42.11 -2.49,41.90 -3.55,41.32 -4.60,40.74 -5.42,39.85 -6.23,38.96 -6.72,37.85 -7.21,36.75 -7.32,35.55 -7.43,34.35 -7.15,33.18 -6.87,32.01 -6.23,30.98 -5.59,29.96 -4.66,29.20 -3.73,28.43 -2.60,28.00 -1.47,27.58 -0.27,27.53 0.92,27.49 2.08,27.83 3.24,28.17 4.22,28.86 5.21,29.56 5.92,30.53 6.64,31.50 7.00,32.65 7.37,33.80 7.35,35.00 7.33,36.21 6.92,37.34 6.52,38.48 5.77,39.43 5.03,40.37 4.02,41.03 3.01,41.69 1.84,42.00 0.68,42.30 -0.52,42.21 -1.72,42.13 -2.83,41.66 -3.94,41.20 -4.85,40.40 -5.75,39.61 -6.36,38.56 -6.96,37.52 -7.20,36.34 -7.44,35.16 -7.29,33.96 -7.14,32.76 -6.62,31.68 -6.09,30.59 -5.25,29.73 -4.40,28.87 -3.33,28.33 -2.25,27.78 -1.06,27.60 0.12,27.43 0.12,27.43 0.12,27.43 3.41,27.74 6.70,28.06 9.84,28.69 12.98,29.32 15.17,30.04 17.36,30.77 19.87,31.50 22.38,32.24 25.95,35.94 29.51,39.65 29.40,40.53 29.30,41.42 28.98,42.25 28.66,43.08 28.16,43.82 27.65,44.55 26.98,45.14 26.32,45.73 25.53,46.15 24.74,46.56 23.87,46.77 23.01,46.99 22.12,46.99 21.23,46.99 20.36,46.77 19.49,46.56 18.71,46.14 17.92,45.73 17.25,45.14 16.58,44.55 16.08,43.82 15.57,43.08 15.25,42.25 14.94,41.42 14.83,40.53 14.72,39.65 14.75,38.45 14.77,37.25 14.83,35.05 14.88,32.85 15.15,30.10 15.43,27.34 15.72,24.96 16.02,22.59 16.41,20.26 16.80,17.94 17.20,15.17 17.59,12.41 17.84,9.38 18.08,6.36 18.44,4.20 18.80,2.05 20.20,4.54 21.61,7.03 19.17,6.89 16.74,6.76 14.30,6.60 11.87,6.45 9.44,6.10 7.01,5.75 4.73,5.57 2.44,5.39 1.22,5.30 0,5.22 -0.62,5.14 -1.24,5.07 -1.83,4.84 -2.42,4.62 -2.94,4.26 -3.46,3.90 -3.88,3.43 -4.29,2.96 -4.59,2.40 -4.88,1.85 -5.03,1.24 -5.18,0.62 -5.18,-0.00 -5.18,-0.62 -5.03,-1.24 -4.88,-1.85 -4.59,-2.40 -4.29,-2.96 -3.88,-3.43 -3.46,-3.90 -2.94,-4.26 -2.42,-4.62 -1.83,-4.84 -1.24,-5.07 -0.62,-5.14 0.00,-5.22 0.00,-5.22 L 0,-5.22 Z"></path></g><g transform="translate(38.83905289474933 173.78539093871132) rotate(0 22.759788091483188 12.762497995224294)" stroke="none"><path fill="#1e1e1e" d="M 0,-5.36 Q 0,-5.36 2.20,-5.40 4.40,-5.44 7.51,-5.57 10.62,-5.70 13.33,-5.82 16.04,-5.93 18.91,-6.02 21.79,-6.11 24.05,-6.19 26.31,-6.27 28.52,-6.34 30.72,-6.41 32.86,-6.47 35.00,-6.53 37.28,-6.61 39.57,-6.69 41.74,-6.78 43.92,-6.88 47.53,-5.18 51.13,-3.47 51.80,-1.04 52.47,1.38 51.65,4.57 50.84,7.76 50.32,10.54 49.81,13.32 49.18,16.30 48.56,19.28 48.37,21.57 48.18,23.87 46.88,27.45 45.57,31.04 43.24,31.95 40.91,32.87 38.51,32.92 36.11,32.98 33.65,32.98 31.18,32.98 28.88,32.96 26.57,32.93 23.90,32.77 21.24,32.61 18.68,32.55 16.13,32.48 14.00,32.49 11.87,32.49 9.54,32.53 7.20,32.56 4.89,32.81 2.58,33.06 -1.31,31.29 -5.21,29.53 -5.94,27.34 -6.68,25.16 -6.71,22.78 -6.75,20.39 -6.75,17.75 -6.75,15.11 -6.75,12.62 -6.76,10.12 -6.51,7.60 -6.26,5.08 -5.55,2.00 -4.83,-1.06 -3.45,3.12 -2.06,7.31 -3.18,6.79 -4.29,6.27 -5.18,5.42 -6.07,4.57 -6.64,3.48 -7.21,2.39 -7.40,1.17 -7.59,-0.03 -7.39,-1.24 -7.19,-2.45 -6.60,-3.54 -6.02,-4.62 -5.13,-5.46 -4.23,-6.30 -3.11,-6.82 -1.99,-7.33 -0.77,-7.45 0.44,-7.58 1.64,-7.31 2.84,-7.04 3.89,-6.40 4.94,-5.76 5.73,-4.82 6.53,-3.88 6.97,-2.74 7.42,-1.59 7.49,-0.37 7.55,0.85 7.21,2.04 6.88,3.22 6.18,4.23 5.49,5.25 4.51,5.99 3.52,6.73 2.36,7.11 1.19,7.50 -0.03,7.49 -1.26,7.49 -2.42,7.09 -3.59,6.69 -4.56,5.94 -5.54,5.19 -6.22,4.17 -6.91,3.15 -7.23,1.97 -7.55,0.78 -7.48,-0.44 -7.41,-1.66 -6.95,-2.80 -6.49,-3.94 -5.69,-4.88 -4.89,-5.81 -3.83,-6.44 -2.77,-7.07 -1.57,-7.33 -0.37,-7.59 0.84,-7.45 2.06,-7.31 2.06,-7.31 2.06,-7.31 5.46,-0.77 8.85,5.76 8.65,8.46 8.45,11.16 8.46,13.86 8.46,16.57 7.82,18.79 7.18,21.02 5.62,19.37 4.07,17.71 6.25,17.68 8.44,17.64 10.72,17.68 13.01,17.71 15.59,17.74 18.16,17.76 21.21,17.94 24.26,18.13 26.70,18.10 29.15,18.07 31.91,18.07 34.67,18.06 36.81,18.16 38.95,18.27 37.04,20.76 35.12,23.26 34.85,25.74 34.59,28.23 34.07,24.98 33.55,21.72 33.84,19.37 34.13,17.02 34.60,14.84 35.07,12.65 35.70,10.37 36.34,8.08 37.98,6.02 39.63,3.96 41.77,5.42 43.92,6.88 41.74,6.78 39.57,6.69 37.28,6.61 35.00,6.53 32.86,6.47 30.72,6.41 28.52,6.34 26.31,6.27 24.05,6.19 21.79,6.11 18.91,6.02 16.04,5.93 13.33,5.82 10.62,5.70 7.51,5.57 4.40,5.44 2.20,5.40 0,5.36 -0.64,5.28 -1.28,5.20 -1.88,4.97 -2.49,4.74 -3.02,4.38 -3.55,4.01 -3.98,3.52 -4.41,3.04 -4.71,2.47 -5.01,1.90 -5.16,1.27 -5.32,0.64 -5.32,-0.00 -5.32,-0.64 -5.16,-1.27 -5.01,-1.90 -4.71,-2.47 -4.41,-3.04 -3.98,-3.52 -3.55,-4.01 -3.02,-4.38 -2.49,-4.74 -1.88,-4.97 -1.28,-5.20 -0.64,-5.28 0.00,-5.36 0.00,-5.36 L 0,-5.36 Z"></path></g><g transform="translate(55.85571688838172 124.43706535717729) rotate(0 0.00005000000010113581 0.00005000000010113581)" stroke="none"><path fill="#1e1e1e" d="M 3.14,-3.14 Q 3.14,-3.14 3.55,-2.55 3.97,-1.97 4.18,-1.28 4.40,-0.59 4.38,0.11 4.36,0.83 4.11,1.51 3.86,2.18 3.41,2.74 2.96,3.30 2.36,3.69 1.75,4.08 1.05,4.25 0.36,4.42 -0.35,4.36 -1.07,4.31 -1.73,4.02 -2.39,3.74 -2.92,3.26 -3.46,2.78 -3.81,2.15 -4.16,1.53 -4.30,0.82 -4.43,0.11 -4.34,-0.59 -4.24,-1.30 -3.92,-1.94 -3.60,-2.59 -3.09,-3.09 -2.59,-3.60 -1.94,-3.92 -1.30,-4.24 -0.59,-4.34 0.12,-4.43 0.82,-4.30 1.53,-4.16 2.15,-3.81 2.78,-3.46 3.26,-2.92 3.74,-2.39 4.02,-1.73 4.31,-1.07 4.36,-0.35 4.42,0.36 4.25,1.05 4.07,1.75 3.69,2.36 3.30,2.96 2.74,3.41 2.18,3.86 1.51,4.11 0.83,4.36 0.11,4.38 -0.60,4.40 -1.28,4.18 -1.97,3.97 -2.55,3.55 -3.14,3.13 -3.14,3.14 -3.14,3.14 -3.47,2.71 -3.80,2.29 -4.02,1.80 -4.24,1.32 -4.33,0.79 -4.43,0.26 -4.40,-0.26 -4.36,-0.80 -4.20,-1.31 -4.04,-1.82 -3.77,-2.28 -3.49,-2.73 -3.11,-3.11 -2.73,-3.49 -2.28,-3.77 -1.82,-4.05 -1.31,-4.20 -0.80,-4.36 -0.26,-4.40 0.26,-4.43 0.79,-4.33 1.32,-4.24 1.80,-4.02 2.29,-3.80 2.71,-3.47 3.14,-3.14 3.14,-3.14 L 3.14,-3.14 Z"></path></g><g transform="translate(58.408216487426216 186.9733055337765) rotate(0 0.00005000000010113581 0.00005000000010113581)" stroke="none"><path fill="#1e1e1e" d="M 3.14,-3.14 Q 3.14,-3.14 3.55,-2.55 3.97,-1.97 4.18,-1.28 4.40,-0.59 4.38,0.11 4.36,0.83 4.11,1.51 3.86,2.18 3.41,2.74 2.96,3.30 2.36,3.69 1.75,4.08 1.05,4.25 0.36,4.42 -0.35,4.36 -1.07,4.31 -1.73,4.02 -2.39,3.74 -2.92,3.26 -3.46,2.78 -3.81,2.15 -4.16,1.53 -4.30,0.82 -4.43,0.11 -4.34,-0.59 -4.24,-1.30 -3.92,-1.94 -3.60,-2.59 -3.09,-3.09 -2.59,-3.60 -1.94,-3.92 -1.30,-4.24 -0.59,-4.34 0.12,-4.43 0.82,-4.30 1.53,-4.16 2.15,-3.81 2.78,-3.46 3.26,-2.92 3.74,-2.39 4.02,-1.73 4.31,-1.07 4.36,-0.35 4.42,0.36 4.25,1.05 4.07,1.75 3.69,2.36 3.30,2.96 2.74,3.41 2.18,3.86 1.51,4.11 0.83,4.36 0.11,4.38 -0.60,4.40 -1.28,4.18 -1.97,3.97 -2.55,3.55 -3.14,3.13 -3.14,3.14 -3.14,3.14 -3.47,2.71 -3.80,2.29 -4.02,1.80 -4.24,1.32 -4.33,0.79 -4.43,0.26 -4.40,-0.26 -4.36,-0.80 -4.20,-1.31 -4.04,-1.82 -3.77,-2.28 -3.49,-2.73 -3.11,-3.11 -2.73,-3.49 -2.28,-3.77 -1.82,-4.05 -1.31,-4.20 -0.80,-4.36 -0.26,-4.40 0.26,-4.43 0.79,-4.33 1.32,-4.24 1.80,-4.02 2.29,-3.80 2.71,-3.47 3.14,-3.14 3.14,-3.14 L 3.14,-3.14 Z"></path></g><g transform="translate(159.23195064969786 122.30998235797324) rotate(0 0.00005000000010113581 0.00005000000010113581)" stroke="none"><path fill="#1e1e1e" d="M 3.14,-3.14 Q 3.14,-3.14 3.55,-2.55 3.97,-1.97 4.18,-1.28 4.40,-0.59 4.38,0.11 4.36,0.83 4.11,1.51 3.86,2.18 3.41,2.74 2.96,3.30 2.36,3.69 1.75,4.08 1.05,4.25 0.36,4.42 -0.35,4.36 -1.07,4.31 -1.73,4.02 -2.39,3.74 -2.92,3.26 -3.46,2.78 -3.81,2.15 -4.16,1.53 -4.30,0.82 -4.43,0.11 -4.34,-0.59 -4.24,-1.30 -3.92,-1.94 -3.60,-2.59 -3.09,-3.09 -2.59,-3.60 -1.94,-3.92 -1.30,-4.24 -0.59,-4.34 0.12,-4.43 0.82,-4.30 1.53,-4.16 2.15,-3.81 2.78,-3.46 3.26,-2.92 3.74,-2.39 4.02,-1.73 4.31,-1.07 4.36,-0.35 4.42,0.36 4.25,1.05 4.07,1.75 3.69,2.36 3.30,2.96 2.74,3.41 2.18,3.86 1.51,4.11 0.83,4.36 0.11,4.38 -0.60,4.40 -1.28,4.18 -1.97,3.97 -2.55,3.55 -3.14,3.13 -3.14,3.14 -3.14,3.14 -3.47,2.71 -3.80,2.29 -4.02,1.80 -4.24,1.32 -4.33,0.79 -4.43,0.26 -4.40,-0.26 -4.36,-0.80 -4.20,-1.31 -4.04,-1.82 -3.77,-2.28 -3.49,-2.73 -3.11,-3.11 -2.73,-3.49 -2.28,-3.77 -1.82,-4.05 -1.31,-4.20 -0.80,-4.36 -0.26,-4.40 0.26,-4.43 0.79,-4.33 1.32,-4.24 1.80,-4.02 2.29,-3.80 2.71,-3.47 3.14,-3.14 3.14,-3.14 L 3.14,-3.14 Z"></path></g><g transform="translate(97.5465436727809 111.24915076211255) rotate(0 0.00005000000010113581 0.00005000000010113581)" stroke="none"><path fill="#1e1e1e" d="M 3.14,-3.14 Q 3.14,-3.14 3.55,-2.55 3.97,-1.97 4.18,-1.28 4.40,-0.59 4.38,0.11 4.36,0.83 4.11,1.51 3.86,2.18 3.41,2.74 2.96,3.30 2.36,3.69 1.75,4.08 1.05,4.25 0.36,4.42 -0.35,4.36 -1.07,4.31 -1.73,4.02 -2.39,3.74 -2.92,3.26 -3.46,2.78 -3.81,2.15 -4.16,1.53 -4.30,0.82 -4.43,0.11 -4.34,-0.59 -4.24,-1.30 -3.92,-1.94 -3.60,-2.59 -3.09,-3.09 -2.59,-3.60 -1.94,-3.92 -1.30,-4.24 -0.59,-4.34 0.12,-4.43 0.82,-4.30 1.53,-4.16 2.15,-3.81 2.78,-3.46 3.26,-2.92 3.74,-2.39 4.02,-1.73 4.31,-1.07 4.36,-0.35 4.42,0.36 4.25,1.05 4.07,1.75 3.69,2.36 3.30,2.96 2.74,3.41 2.18,3.86 1.51,4.11 0.83,4.36 0.11,4.38 -0.60,4.40 -1.28,4.18 -1.97,3.97 -2.55,3.55 -3.14,3.13 -3.14,3.14 -3.14,3.14 -3.47,2.71 -3.80,2.29 -4.02,1.80 -4.24,1.32 -4.33,0.79 -4.43,0.26 -4.40,-0.26 -4.36,-0.80 -4.20,-1.31 -4.04,-1.82 -3.77,-2.28 -3.49,-2.73 -3.11,-3.11 -2.73,-3.49 -2.28,-3.77 -1.82,-4.05 -1.31,-4.20 -0.80,-4.36 -0.26,-4.40 0.26,-4.43 0.79,-4.33 1.32,-4.24 1.80,-4.02 2.29,-3.80 2.71,-3.47 3.14,-3.14 3.14,-3.14 L 3.14,-3.14 Z"></path></g><g transform="translate(117.11570726545779 109.54748436274895) rotate(0 0.00005000000010113581 0.00005000000010113581)" stroke="none"><path fill="#1e1e1e" d="M 3.14,-3.14 Q 3.14,-3.14 3.55,-2.55 3.97,-1.97 4.18,-1.28 4.40,-0.59 4.38,0.11 4.36,0.83 4.11,1.51 3.86,2.18 3.41,2.74 2.96,3.30 2.36,3.69 1.75,4.08 1.05,4.25 0.36,4.42 -0.35,4.36 -1.07,4.31 -1.73,4.02 -2.39,3.74 -2.92,3.26 -3.46,2.78 -3.81,2.15 -4.16,1.53 -4.30,0.82 -4.43,0.11 -4.34,-0.59 -4.24,-1.30 -3.92,-1.94 -3.60,-2.59 -3.09,-3.09 -2.59,-3.60 -1.94,-3.92 -1.30,-4.24 -0.59,-4.34 0.12,-4.43 0.82,-4.30 1.53,-4.16 2.15,-3.81 2.78,-3.46 3.26,-2.92 3.74,-2.39 4.02,-1.73 4.31,-1.07 4.36,-0.35 4.42,0.36 4.25,1.05 4.07,1.75 3.69,2.36 3.30,2.96 2.74,3.41 2.18,3.86 1.51,4.11 0.83,4.36 0.11,4.38 -0.60,4.40 -1.28,4.18 -1.97,3.97 -2.55,3.55 -3.14,3.13 -3.14,3.14 -3.14,3.14 -3.47,2.71 -3.80,2.29 -4.02,1.80 -4.24,1.32 -4.33,0.79 -4.43,0.26 -4.40,-0.26 -4.36,-0.80 -4.20,-1.31 -4.04,-1.82 -3.77,-2.28 -3.49,-2.73 -3.11,-3.11 -2.73,-3.49 -2.28,-3.77 -1.82,-4.05 -1.31,-4.20 -0.80,-4.36 -0.26,-4.40 0.26,-4.43 0.79,-4.33 1.32,-4.24 1.80,-4.02 2.29,-3.80 2.71,-3.47 3.14,-3.14 3.14,-3.14 L 3.14,-3.14 Z"></path></g><g transform="translate(98.3973768724627 132.09456415431214) rotate(0 0.00005000000010113581 0.00005000000010113581)" stroke="none"><path fill="#1e1e1e" d="M 3.14,-3.14 Q 3.14,-3.14 3.55,-2.55 3.97,-1.97 4.18,-1.28 4.40,-0.59 4.38,0.11 4.36,0.83 4.11,1.51 3.86,2.18 3.41,2.74 2.96,3.30 2.36,3.69 1.75,4.08 1.05,4.25 0.36,4.42 -0.35,4.36 -1.07,4.31 -1.73,4.02 -2.39,3.74 -2.92,3.26 -3.46,2.78 -3.81,2.15 -4.16,1.53 -4.30,0.82 -4.43,0.11 -4.34,-0.59 -4.24,-1.30 -3.92,-1.94 -3.60,-2.59 -3.09,-3.09 -2.59,-3.60 -1.94,-3.92 -1.30,-4.24 -0.59,-4.34 0.12,-4.43 0.82,-4.30 1.53,-4.16 2.15,-3.81 2.78,-3.46 3.26,-2.92 3.74,-2.39 4.02,-1.73 4.31,-1.07 4.36,-0.35 4.42,0.36 4.25,1.05 4.07,1.75 3.69,2.36 3.30,2.96 2.74,3.41 2.18,3.86 1.51,4.11 0.83,4.36 0.11,4.38 -0.60,4.40 -1.28,4.18 -1.97,3.97 -2.55,3.55 -3.14,3.13 -3.14,3.14 -3.14,3.14 -3.47,2.71 -3.80,2.29 -4.02,1.80 -4.24,1.32 -4.33,0.79 -4.43,0.26 -4.40,-0.26 -4.36,-0.80 -4.20,-1.31 -4.04,-1.82 -3.77,-2.28 -3.49,-2.73 -3.11,-3.11 -2.73,-3.49 -2.28,-3.77 -1.82,-4.05 -1.31,-4.20 -0.80,-4.36 -0.26,-4.40 0.26,-4.43 0.79,-4.33 1.32,-4.24 1.80,-4.02 2.29,-3.80 2.71,-3.47 3.14,-3.14 3.14,-3.14 L 3.14,-3.14 Z"></path></g><g transform="translate(118.39195706498049 130.39289775494854) rotate(0 0.00005000000010113581 0.00005000000010113581)" stroke="none"><path fill="#1e1e1e" d="M 3.14,-3.14 Q 3.14,-3.14 3.55,-2.55 3.97,-1.97 4.18,-1.28 4.40,-0.59 4.38,0.11 4.36,0.83 4.11,1.51 3.86,2.18 3.41,2.74 2.96,3.30 2.36,3.69 1.75,4.08 1.05,4.25 0.36,4.42 -0.35,4.36 -1.07,4.31 -1.73,4.02 -2.39,3.74 -2.92,3.26 -3.46,2.78 -3.81,2.15 -4.16,1.53 -4.30,0.82 -4.43,0.11 -4.34,-0.59 -4.24,-1.30 -3.92,-1.94 -3.60,-2.59 -3.09,-3.09 -2.59,-3.60 -1.94,-3.92 -1.30,-4.24 -0.59,-4.34 0.12,-4.43 0.82,-4.30 1.53,-4.16 2.15,-3.81 2.78,-3.46 3.26,-2.92 3.74,-2.39 4.02,-1.73 4.31,-1.07 4.36,-0.35 4.42,0.36 4.25,1.05 4.07,1.75 3.69,2.36 3.30,2.96 2.74,3.41 2.18,3.86 1.51,4.11 0.83,4.36 0.11,4.38 -0.60,4.40 -1.28,4.18 -1.97,3.97 -2.55,3.55 -3.14,3.13 -3.14,3.14 -3.14,3.14 -3.47,2.71 -3.80,2.29 -4.02,1.80 -4.24,1.32 -4.33,0.79 -4.43,0.26 -4.40,-0.26 -4.36,-0.80 -4.20,-1.31 -4.04,-1.82 -3.77,-2.28 -3.49,-2.73 -3.11,-3.11 -2.73,-3.49 -2.28,-3.77 -1.82,-4.05 -1.31,-4.20 -0.80,-4.36 -0.26,-4.40 0.26,-4.43 0.79,-4.33 1.32,-4.24 1.80,-4.02 2.29,-3.80 2.71,-3.47 3.14,-3.14 3.14,-3.14 L 3.14,-3.14 Z"></path></g><g transform="translate(49.04905129092822 156.76872694507892) rotate(0 0.21270829992045037 0)" stroke="none"><path fill="#1e1e1e" d="M 4.24,-1.32 Q 4.24,-1.32 4.30,-0.26 4.36,0.80 3.93,1.76 3.49,2.73 2.65,3.39 1.82,4.05 0.77,4.24 -0.26,4.43 -1.28,4.11 -2.29,3.80 -3.04,3.04 -3.80,2.29 -4.11,1.28 -4.43,0.26 -4.24,-0.77 -4.04,-1.82 -3.39,-2.65 -2.73,-3.49 -1.76,-3.93 -0.79,-4.36 0.26,-4.30 1.32,-4.23 2.23,-3.68 3.14,-3.13 3.69,-2.23 L 4.24,-1.32 Z"></path></g><g transform="translate(72.02154768233231 157.19414354491983) rotate(0 0 -0.21270829992045037)" stroke="none"><path fill="#1e1e1e" d="M 4.24,-1.32 Q 4.24,-1.32 4.30,-0.26 4.36,0.80 3.93,1.76 3.49,2.73 2.65,3.39 1.82,4.05 0.77,4.24 -0.26,4.43 -1.28,4.11 -2.29,3.80 -3.04,3.04 -3.80,2.29 -4.11,1.28 -4.43,0.26 -4.24,-0.77 -4.04,-1.82 -3.39,-2.65 -2.73,-3.49 -1.76,-3.93 -0.79,-4.36 0.26,-4.30 1.32,-4.23 2.23,-3.68 3.14,-3.13 3.69,-2.23 L 4.24,-1.32 Z"></path></g><g transform="translate(98.3973768724627 155.06706054571578) rotate(0 0.00005000000010113581 0.00005000000010113581)" stroke="none"><path fill="#1e1e1e" d="M 3.14,-3.14 Q 3.14,-3.14 3.55,-2.55 3.97,-1.97 4.18,-1.28 4.40,-0.59 4.38,0.11 4.36,0.83 4.11,1.51 3.86,2.18 3.41,2.74 2.96,3.30 2.36,3.69 1.75,4.08 1.05,4.25 0.36,4.42 -0.35,4.36 -1.07,4.31 -1.73,4.02 -2.39,3.74 -2.92,3.26 -3.46,2.78 -3.81,2.15 -4.16,1.53 -4.30,0.82 -4.43,0.11 -4.34,-0.59 -4.24,-1.30 -3.92,-1.94 -3.60,-2.59 -3.09,-3.09 -2.59,-3.60 -1.94,-3.92 -1.30,-4.24 -0.59,-4.34 0.12,-4.43 0.82,-4.30 1.53,-4.16 2.15,-3.81 2.78,-3.46 3.26,-2.92 3.74,-2.39 4.02,-1.73 4.31,-1.07 4.36,-0.35 4.42,0.36 4.25,1.05 4.07,1.75 3.69,2.36 3.30,2.96 2.74,3.41 2.18,3.86 1.51,4.11 0.83,4.36 0.11,4.38 -0.60,4.40 -1.28,4.18 -1.97,3.97 -2.55,3.55 -3.14,3.13 -3.14,3.14 -3.14,3.14 -3.47,2.71 -3.80,2.29 -4.02,1.80 -4.24,1.32 -4.33,0.79 -4.43,0.26 -4.40,-0.26 -4.36,-0.80 -4.20,-1.31 -4.04,-1.82 -3.77,-2.28 -3.49,-2.73 -3.11,-3.11 -2.73,-3.49 -2.28,-3.77 -1.82,-4.05 -1.31,-4.20 -0.80,-4.36 -0.26,-4.40 0.26,-4.43 0.79,-4.33 1.32,-4.24 1.80,-4.02 2.29,-3.80 2.71,-3.47 3.14,-3.14 3.14,-3.14 L 3.14,-3.14 Z"></path></g><g transform="translate(121.36987326386588 152.93997754651173) rotate(0 0.00005000000010113581 0.00005000000010113581)" stroke="none"><path fill="#1e1e1e" d="M 3.14,-3.14 Q 3.14,-3.14 3.55,-2.55 3.97,-1.97 4.18,-1.28 4.40,-0.59 4.38,0.11 4.36,0.83 4.11,1.51 3.86,2.18 3.41,2.74 2.96,3.30 2.36,3.69 1.75,4.08 1.05,4.25 0.36,4.42 -0.35,4.36 -1.07,4.31 -1.73,4.02 -2.39,3.74 -2.92,3.26 -3.46,2.78 -3.81,2.15 -4.16,1.53 -4.30,0.82 -4.43,0.11 -4.34,-0.59 -4.24,-1.30 -3.92,-1.94 -3.60,-2.59 -3.09,-3.09 -2.59,-3.60 -1.94,-3.92 -1.30,-4.24 -0.59,-4.34 0.12,-4.43 0.82,-4.30 1.53,-4.16 2.15,-3.81 2.78,-3.46 3.26,-2.92 3.74,-2.39 4.02,-1.73 4.31,-1.07 4.36,-0.35 4.42,0.36 4.25,1.05 4.07,1.75 3.69,2.36 3.30,2.96 2.74,3.41 2.18,3.86 1.51,4.11 0.83,4.36 0.11,4.38 -0.60,4.40 -1.28,4.18 -1.97,3.97 -2.55,3.55 -3.14,3.13 -3.14,3.14 -3.14,3.14 -3.47,2.71 -3.80,2.29 -4.02,1.80 -4.24,1.32 -4.33,0.79 -4.43,0.26 -4.40,-0.26 -4.36,-0.80 -4.20,-1.31 -4.04,-1.82 -3.77,-2.28 -3.49,-2.73 -3.11,-3.11 -2.73,-3.49 -2.28,-3.77 -1.82,-4.05 -1.31,-4.20 -0.80,-4.36 -0.26,-4.40 0.26,-4.43 0.79,-4.33 1.32,-4.24 1.80,-4.02 2.29,-3.80 2.71,-3.47 3.14,-3.14 3.14,-3.14 L 3.14,-3.14 Z"></path></g><g transform="translate(146.46945265447357 153.79081074619307) rotate(0 0.00005000000010113581 0.00005000000010113581)" stroke="none"><path fill="#1e1e1e" d="M 3.14,-3.14 Q 3.14,-3.14 3.55,-2.55 3.97,-1.97 4.18,-1.28 4.40,-0.59 4.38,0.11 4.36,0.83 4.11,1.51 3.86,2.18 3.41,2.74 2.96,3.30 2.36,3.69 1.75,4.08 1.05,4.25 0.36,4.42 -0.35,4.36 -1.07,4.31 -1.73,4.02 -2.39,3.74 -2.92,3.26 -3.46,2.78 -3.81,2.15 -4.16,1.53 -4.30,0.82 -4.43,0.11 -4.34,-0.59 -4.24,-1.30 -3.92,-1.94 -3.60,-2.59 -3.09,-3.09 -2.59,-3.60 -1.94,-3.92 -1.30,-4.24 -0.59,-4.34 0.12,-4.43 0.82,-4.30 1.53,-4.16 2.15,-3.81 2.78,-3.46 3.26,-2.92 3.74,-2.39 4.02,-1.73 4.31,-1.07 4.36,-0.35 4.42,0.36 4.25,1.05 4.07,1.75 3.69,2.36 3.30,2.96 2.74,3.41 2.18,3.86 1.51,4.11 0.83,4.36 0.11,4.38 -0.60,4.40 -1.28,4.18 -1.97,3.97 -2.55,3.55 -3.14,3.13 -3.14,3.14 -3.14,3.14 -3.47,2.71 -3.80,2.29 -4.02,1.80 -4.24,1.32 -4.33,0.79 -4.43,0.26 -4.40,-0.26 -4.36,-0.80 -4.20,-1.31 -4.04,-1.82 -3.77,-2.28 -3.49,-2.73 -3.11,-3.11 -2.73,-3.49 -2.28,-3.77 -1.82,-4.05 -1.31,-4.20 -0.80,-4.36 -0.26,-4.40 0.26,-4.43 0.79,-4.33 1.32,-4.24 1.80,-4.02 2.29,-3.80 2.71,-3.47 3.14,-3.14 3.14,-3.14 L 3.14,-3.14 Z"></path></g><g transform="translate(100.9498764715072 181.8683063356866) rotate(0 0.00005000000010113581 0.00005000000010113581)" stroke="none"><path fill="#1e1e1e" d="M 3.14,-3.14 Q 3.14,-3.14 3.55,-2.55 3.97,-1.97 4.18,-1.28 4.40,-0.59 4.38,0.11 4.36,0.83 4.11,1.51 3.86,2.18 3.41,2.74 2.96,3.30 2.36,3.69 1.75,4.08 1.05,4.25 0.36,4.42 -0.35,4.36 -1.07,4.31 -1.73,4.02 -2.39,3.74 -2.92,3.26 -3.46,2.78 -3.81,2.15 -4.16,1.53 -4.30,0.82 -4.43,0.11 -4.34,-0.59 -4.24,-1.30 -3.92,-1.94 -3.60,-2.59 -3.09,-3.09 -2.59,-3.60 -1.94,-3.92 -1.30,-4.24 -0.59,-4.34 0.12,-4.43 0.82,-4.30 1.53,-4.16 2.15,-3.81 2.78,-3.46 3.26,-2.92 3.74,-2.39 4.02,-1.73 4.31,-1.07 4.36,-0.35 4.42,0.36 4.25,1.05 4.07,1.75 3.69,2.36 3.30,2.96 2.74,3.41 2.18,3.86 1.51,4.11 0.83,4.36 0.11,4.38 -0.60,4.40 -1.28,4.18 -1.97,3.97 -2.55,3.55 -3.14,3.13 -3.14,3.14 -3.14,3.14 -3.47,2.71 -3.80,2.29 -4.02,1.80 -4.24,1.32 -4.33,0.79 -4.43,0.26 -4.40,-0.26 -4.36,-0.80 -4.20,-1.31 -4.04,-1.82 -3.77,-2.28 -3.49,-2.73 -3.11,-3.11 -2.73,-3.49 -2.28,-3.77 -1.82,-4.05 -1.31,-4.20 -0.80,-4.36 -0.26,-4.40 0.26,-4.43 0.79,-4.33 1.32,-4.24 1.80,-4.02 2.29,-3.80 2.71,-3.47 3.14,-3.14 3.14,-3.14 L 3.14,-3.14 Z"></path></g><g transform="translate(122.22070646354769 178.89039013680122) rotate(0 0.00005000000010113581 0.00005000000010113581)" stroke="none"><path fill="#1e1e1e" d="M 3.14,-3.14 Q 3.14,-3.14 3.55,-2.55 3.97,-1.97 4.18,-1.28 4.40,-0.59 4.38,0.11 4.36,0.83 4.11,1.51 3.86,2.18 3.41,2.74 2.96,3.30 2.36,3.69 1.75,4.08 1.05,4.25 0.36,4.42 -0.35,4.36 -1.07,4.31 -1.73,4.02 -2.39,3.74 -2.92,3.26 -3.46,2.78 -3.81,2.15 -4.16,1.53 -4.30,0.82 -4.43,0.11 -4.34,-0.59 -4.24,-1.30 -3.92,-1.94 -3.60,-2.59 -3.09,-3.09 -2.59,-3.60 -1.94,-3.92 -1.30,-4.24 -0.59,-4.34 0.12,-4.43 0.82,-4.30 1.53,-4.16 2.15,-3.81 2.78,-3.46 3.26,-2.92 3.74,-2.39 4.02,-1.73 4.31,-1.07 4.36,-0.35 4.42,0.36 4.25,1.05 4.07,1.75 3.69,2.36 3.30,2.96 2.74,3.41 2.18,3.86 1.51,4.11 0.83,4.36 0.11,4.38 -0.60,4.40 -1.28,4.18 -1.97,3.97 -2.55,3.55 -3.14,3.13 -3.14,3.14 -3.14,3.14 -3.47,2.71 -3.80,2.29 -4.02,1.80 -4.24,1.32 -4.33,0.79 -4.43,0.26 -4.40,-0.26 -4.36,-0.80 -4.20,-1.31 -4.04,-1.82 -3.77,-2.28 -3.49,-2.73 -3.11,-3.11 -2.73,-3.49 -2.28,-3.77 -1.82,-4.05 -1.31,-4.20 -0.80,-4.36 -0.26,-4.40 0.26,-4.43 0.79,-4.33 1.32,-4.24 1.80,-4.02 2.29,-3.80 2.71,-3.47 3.14,-3.14 3.14,-3.14 L 3.14,-3.14 Z"></path></g><g transform="translate(150.29820205304077 178.03955693711941) rotate(0 0 -0.21270829992045037)" stroke="none"><path fill="#1e1e1e" d="M 4.24,-1.32 Q 4.24,-1.32 4.30,-0.26 4.36,0.80 3.93,1.76 3.49,2.73 2.65,3.39 1.82,4.05 0.77,4.24 -0.26,4.43 -1.28,4.11 -2.29,3.80 -3.04,3.04 -3.80,2.29 -4.11,1.28 -4.43,0.26 -4.24,-0.77 -4.04,-1.82 -3.39,-2.65 -2.73,-3.49 -1.76,-3.93 -0.79,-4.36 0.26,-4.30 1.32,-4.23 2.23,-3.68 3.14,-3.13 3.69,-2.23 L 4.24,-1.32 Z"></path></g><g transform="translate(103.0769594707117 198.884970329319) rotate(0 0.00005000000010113581 0.00005000000010113581)" stroke="none"><path fill="#1e1e1e" d="M 3.14,-3.14 Q 3.14,-3.14 3.55,-2.55 3.97,-1.97 4.18,-1.28 4.40,-0.59 4.38,0.11 4.36,0.83 4.11,1.51 3.86,2.18 3.41,2.74 2.96,3.30 2.36,3.69 1.75,4.08 1.05,4.25 0.36,4.42 -0.35,4.36 -1.07,4.31 -1.73,4.02 -2.39,3.74 -2.92,3.26 -3.46,2.78 -3.81,2.15 -4.16,1.53 -4.30,0.82 -4.43,0.11 -4.34,-0.59 -4.24,-1.30 -3.92,-1.94 -3.60,-2.59 -3.09,-3.09 -2.59,-3.60 -1.94,-3.92 -1.30,-4.24 -0.59,-4.34 0.12,-4.43 0.82,-4.30 1.53,-4.16 2.15,-3.81 2.78,-3.46 3.26,-2.92 3.74,-2.39 4.02,-1.73 4.31,-1.07 4.36,-0.35 4.42,0.36 4.25,1.05 4.07,1.75 3.69,2.36 3.30,2.96 2.74,3.41 2.18,3.86 1.51,4.11 0.83,4.36 0.11,4.38 -0.60,4.40 -1.28,4.18 -1.97,3.97 -2.55,3.55 -3.14,3.13 -3.14,3.14 -3.14,3.14 -3.47,2.71 -3.80,2.29 -4.02,1.80 -4.24,1.32 -4.33,0.79 -4.43,0.26 -4.40,-0.26 -4.36,-0.80 -4.20,-1.31 -4.04,-1.82 -3.77,-2.28 -3.49,-2.73 -3.11,-3.11 -2.73,-3.49 -2.28,-3.77 -1.82,-4.05 -1.31,-4.20 -0.80,-4.36 -0.26,-4.40 0.26,-4.43 0.79,-4.33 1.32,-4.24 1.80,-4.02 2.29,-3.80 2.71,-3.47 3.14,-3.14 3.14,-3.14 L 3.14,-3.14 Z"></path></g><g transform="translate(123.49695626307039 198.884970329319) rotate(0 0.00005000000010113581 0.00005000000010113581)" stroke="none"><path fill="#1e1e1e" d="M 3.14,-3.14 Q 3.14,-3.14 3.55,-2.55 3.97,-1.97 4.18,-1.28 4.40,-0.59 4.38,0.11 4.36,0.83 4.11,1.51 3.86,2.18 3.41,2.74 2.96,3.30 2.36,3.69 1.75,4.08 1.05,4.25 0.36,4.42 -0.35,4.36 -1.07,4.31 -1.73,4.02 -2.39,3.74 -2.92,3.26 -3.46,2.78 -3.81,2.15 -4.16,1.53 -4.30,0.82 -4.43,0.11 -4.34,-0.59 -4.24,-1.30 -3.92,-1.94 -3.60,-2.59 -3.09,-3.09 -2.59,-3.60 -1.94,-3.92 -1.30,-4.24 -0.59,-4.34 0.12,-4.43 0.82,-4.30 1.53,-4.16 2.15,-3.81 2.78,-3.46 3.26,-2.92 3.74,-2.39 4.02,-1.73 4.31,-1.07 4.36,-0.35 4.42,0.36 4.25,1.05 4.07,1.75 3.69,2.36 3.30,2.96 2.74,3.41 2.18,3.86 1.51,4.11 0.83,4.36 0.11,4.38 -0.60,4.40 -1.28,4.18 -1.97,3.97 -2.55,3.55 -3.14,3.13 -3.14,3.14 -3.14,3.14 -3.47,2.71 -3.80,2.29 -4.02,1.80 -4.24,1.32 -4.33,0.79 -4.43,0.26 -4.40,-0.26 -4.36,-0.80 -4.20,-1.31 -4.04,-1.82 -3.77,-2.28 -3.49,-2.73 -3.11,-3.11 -2.73,-3.49 -2.28,-3.77 -1.82,-4.05 -1.31,-4.20 -0.80,-4.36 -0.26,-4.40 0.26,-4.43 0.79,-4.33 1.32,-4.24 1.80,-4.02 2.29,-3.80 2.71,-3.47 3.14,-3.14 3.14,-3.14 L 3.14,-3.14 Z"></path></g><g transform="translate(150.29820205304077 195.9070541304336) rotate(0 0.00005000000010113581 0.00005000000010113581)" stroke="none"><path fill="#1e1e1e" d="M 3.14,-3.14 Q 3.14,-3.14 3.55,-2.55 3.97,-1.97 4.18,-1.28 4.40,-0.59 4.38,0.11 4.36,0.83 4.11,1.51 3.86,2.18 3.41,2.74 2.96,3.30 2.36,3.69 1.75,4.08 1.05,4.25 0.36,4.42 -0.35,4.36 -1.07,4.31 -1.73,4.02 -2.39,3.74 -2.92,3.26 -3.46,2.78 -3.81,2.15 -4.16,1.53 -4.30,0.82 -4.43,0.11 -4.34,-0.59 -4.24,-1.30 -3.92,-1.94 -3.60,-2.59 -3.09,-3.09 -2.59,-3.60 -1.94,-3.92 -1.30,-4.24 -0.59,-4.34 0.12,-4.43 0.82,-4.30 1.53,-4.16 2.15,-3.81 2.78,-3.46 3.26,-2.92 3.74,-2.39 4.02,-1.73 4.31,-1.07 4.36,-0.35 4.42,0.36 4.25,1.05 4.07,1.75 3.69,2.36 3.30,2.96 2.74,3.41 2.18,3.86 1.51,4.11 0.83,4.36 0.11,4.38 -0.60,4.40 -1.28,4.18 -1.97,3.97 -2.55,3.55 -3.14,3.13 -3.14,3.14 -3.14,3.14 -3.47,2.71 -3.80,2.29 -4.02,1.80 -4.24,1.32 -4.33,0.79 -4.43,0.26 -4.40,-0.26 -4.36,-0.80 -4.20,-1.31 -4.04,-1.82 -3.77,-2.28 -3.49,-2.73 -3.11,-3.11 -2.73,-3.49 -2.28,-3.77 -1.82,-4.05 -1.31,-4.20 -0.80,-4.36 -0.26,-4.40 0.26,-4.43 0.79,-4.33 1.32,-4.24 1.80,-4.02 2.29,-3.80 2.71,-3.47 3.14,-3.14 3.14,-3.14 L 3.14,-3.14 Z"></path></g></svg>