<?xml version="1.0" standalone="no"?>
<!DOCTYPE svg PUBLIC "-//W3C//DTD SVG 1.1//EN" "http://www.w3.org/Graphics/SVG/1.1/DTD/svg11.dtd">
<svg version="1.1" xmlns="http://www.w3.org/2000/svg" viewBox="0 0 212.28830312804712 205.4816375305927" width="212.28830312804712" height="205.4816375305927"><!-- svg-source:excalidraw --><metadata></metadata><defs><style class="style-fonts">
      </style></defs><rect x="0" y="0" width="212.28830312804712" height="205.4816375305927" fill="#ded4c2"></rect><g stroke-linecap="round" transform="translate(10.00000000000091 10) rotate(0 96.1441515640231 92.74081876529635)"><path d="M86.65 1.08 C98.18 -1.26, 112.42 1.07, 124.13 4.37 C135.85 7.67, 147.3 13.51, 156.93 20.88 C166.56 28.25, 175.97 38.06, 181.93 48.6 C187.88 59.14, 191.5 72.18, 192.64 84.15 C193.78 96.12, 192.64 109.04, 188.78 120.42 C184.93 131.79, 177.59 143.3, 169.51 152.39 C161.44 161.49, 150.97 169.59, 140.32 174.98 C129.68 180.36, 117.84 183.65, 105.65 184.71 C93.46 185.78, 79.11 184.63, 67.17 181.35 C55.23 178.07, 43.4 172.72, 34.01 165.04 C24.62 157.37, 16.48 145.88, 10.83 135.29 C5.17 124.7, 1.14 113.15, 0.09 101.51 C-0.97 89.86, 0.88 76.8, 4.5 65.42 C8.11 54.04, 13.91 42.49, 21.78 33.21 C29.65 23.92, 39.32 15.19, 51.72 9.7 C64.11 4.21, 87.51 1.68, 96.15 0.26 C104.79 -1.16, 103.49 -0.16, 103.56 1.19 M84.8 0.1 C96.03 -2.6, 108.97 -0.97, 120.63 2.45 C132.29 5.87, 144.95 12.97, 154.75 20.62 C164.56 28.27, 173.27 38.28, 179.44 48.34 C185.61 58.41, 190.06 69.44, 191.76 81.01 C193.46 92.58, 193.16 106.47, 189.64 117.78 C186.13 129.09, 178.53 139.68, 170.66 148.88 C162.8 158.07, 152.76 167.05, 142.45 172.95 C132.14 178.85, 120.79 182.97, 108.81 184.29 C96.83 185.62, 82.83 183.91, 70.57 180.9 C58.31 177.9, 45.06 173.28, 35.24 166.24 C25.42 159.21, 17.24 148.95, 11.64 138.67 C6.04 128.39, 2.91 116.48, 1.66 104.57 C0.41 92.65, 1.22 78.55, 4.14 67.18 C7.05 55.81, 11.58 45.69, 19.14 36.36 C26.7 27.03, 38.57 16.96, 49.51 11.2 C60.45 5.43, 79 3.27, 84.75 1.77 C90.51 0.27, 83.89 0.73, 84.04 2.19" stroke="none" stroke-width="0" fill="#a5d8ff"></path><path d="M113.92 0.78 C125.74 1.73, 140.16 9.17, 150.35 15.76 C160.55 22.34, 168.51 30.54, 175.07 40.3 C181.63 50.06, 187.07 62.57, 189.74 74.32 C192.41 86.07, 193.34 99.26, 191.11 110.81 C188.87 122.36, 183.18 133.88, 176.32 143.63 C169.45 153.39, 160.22 162.78, 149.93 169.34 C139.63 175.9, 126.66 180.59, 114.55 182.97 C102.45 185.35, 89.4 185.82, 77.28 183.62 C65.16 181.42, 51.93 176.32, 41.85 169.77 C31.76 163.22, 23.48 154.08, 16.77 144.31 C10.05 134.55, 4.17 122.94, 1.55 111.19 C-1.07 99.44, -1.39 85.46, 1.05 73.82 C3.5 62.18, 9.22 51.19, 16.19 41.34 C23.16 31.49, 32.68 21.44, 42.89 14.73 C53.1 8.02, 64.49 2.95, 77.45 1.06 C90.42 -0.83, 112.48 2.35, 120.69 3.4 C128.89 4.44, 127.04 6.02, 126.71 7.34 M67.01 4.45 C77.4 -0.36, 91.75 -0.59, 104.27 0.52 C116.79 1.62, 130.97 5.58, 142.14 11.08 C153.32 16.58, 163.84 24.26, 171.3 33.52 C178.75 42.78, 183.65 55.44, 186.88 66.64 C190.1 77.83, 191.64 88.86, 190.66 100.69 C189.67 112.53, 186.53 127.18, 180.98 137.65 C175.42 148.12, 166.72 156.35, 157.31 163.51 C147.89 170.67, 136.1 176.89, 124.51 180.6 C112.92 184.3, 100.14 186.64, 87.79 185.73 C75.45 184.81, 61.16 180.75, 50.43 175.11 C39.7 169.47, 30.97 161.33, 23.42 151.9 C15.86 142.47, 9 129.9, 5.11 118.5 C1.22 107.1, -0.94 94.85, 0.08 83.51 C1.09 72.17, 5.36 60.79, 11.18 50.46 C17 40.13, 25.76 29.24, 34.98 21.53 C44.2 13.83, 61.08 6.88, 66.5 4.22 C71.92 1.57, 66.89 4.4, 67.49 5.61" stroke="#1e1e1e" stroke-width="2" fill="none"></path></g><g stroke-linecap="round" transform="translate(19.784581796339808 20.20999839617889) rotate(0 86.14686146776376 82.74352866903746)"><path d="M45.73 9.51 C55.23 3.55, 69.84 1.56, 81.66 0.81 C93.47 0.05, 105.97 1.03, 116.64 4.97 C127.32 8.92, 137.49 16.68, 145.72 24.49 C153.95 32.29, 161.53 41.4, 166.03 51.79 C170.54 62.19, 173.32 75.65, 172.76 86.85 C172.2 98.05, 167.92 108.98, 162.69 119 C157.47 129.03, 150.53 139.67, 141.42 146.99 C132.31 154.3, 119.36 160.06, 108.04 162.92 C96.72 165.77, 84.74 165.84, 73.52 164.11 C62.3 162.39, 50.59 158.58, 40.72 152.56 C30.86 146.53, 20.98 137.32, 14.35 127.95 C7.71 118.59, 2.8 107.28, 0.92 96.38 C-0.97 85.48, 0.19 73.3, 3.04 62.55 C5.88 51.8, 9.2 41.54, 17.98 31.87 C26.75 22.21, 47.73 9.03, 55.69 4.55 C63.64 0.07, 65.39 3.54, 65.72 4.99 M112.02 3.99 C123.29 6.14, 136.65 13.34, 145.57 20.92 C154.5 28.51, 161.33 38.97, 165.56 49.52 C169.78 60.07, 171.03 72.93, 170.92 84.23 C170.8 95.54, 169.26 107.3, 164.89 117.34 C160.52 127.39, 153.55 137.19, 144.72 144.49 C135.89 151.79, 123.34 157.73, 111.9 161.14 C100.46 164.56, 87.46 166.02, 76.08 164.97 C64.69 163.91, 53.78 160.25, 43.58 154.81 C33.38 149.36, 21.64 141.43, 14.89 132.3 C8.15 123.16, 5.31 111.18, 3.1 100.02 C0.89 88.86, -0.4 76.19, 1.63 65.34 C3.67 54.5, 8.27 44.29, 15.31 34.95 C22.34 25.62, 33.43 14.94, 43.85 9.34 C54.28 3.74, 66.32 2.24, 77.85 1.35 C89.37 0.46, 107.27 3.26, 113.01 4.01 C118.75 4.77, 112.6 4.34, 112.29 5.89" stroke="none" stroke-width="0" fill="#ffec99"></path><path d="M67.6 1.68 C78.47 -1.58, 93.45 -0.13, 105 2.11 C116.55 4.35, 127.72 8.73, 136.89 15.11 C146.06 21.48, 154.19 30.57, 160.01 40.36 C165.83 50.15, 170.45 62.65, 171.83 73.86 C173.2 85.07, 171.73 96.98, 168.26 107.62 C164.79 118.25, 158.98 129.26, 151.01 137.68 C143.04 146.1, 131.27 153.58, 120.44 158.14 C109.62 162.69, 97.7 165.05, 86.06 165.01 C74.43 164.96, 61.29 162.19, 50.64 157.85 C39.98 153.52, 29.96 147.26, 22.15 139 C14.35 130.74, 7.48 119.2, 3.78 108.3 C0.09 97.39, -1.22 84.83, -0.02 73.55 C1.19 62.26, 5.04 50.3, 11 40.59 C16.96 30.89, 25.35 21.94, 35.73 15.31 C46.11 8.69, 66.51 3.06, 73.29 0.85 C80.08 -1.37, 76.23 0.5, 76.44 2.03 M94.87 1.26 C105.92 1.15, 117.95 5.34, 128.33 10.9 C138.71 16.47, 149.97 25.35, 157.15 34.63 C164.32 43.92, 169.06 55.99, 171.4 66.63 C173.75 77.26, 173.67 87.81, 171.2 98.45 C168.72 109.08, 163.59 121.3, 156.55 130.45 C149.51 139.6, 139.14 147.49, 128.94 153.36 C118.74 159.23, 106.85 164.42, 95.35 165.66 C83.85 166.9, 71.24 164.41, 59.96 160.81 C48.68 157.21, 36.41 151.56, 27.66 144.06 C18.9 136.57, 11.88 126.23, 7.44 115.85 C3.01 105.47, 1.16 92.7, 1.04 81.77 C0.91 70.84, 1.95 60.37, 6.71 50.25 C11.46 40.13, 20.8 28.81, 29.58 21.06 C38.35 13.32, 48.21 7.21, 59.35 3.78 C70.48 0.36, 90.29 1, 96.4 0.5 C102.51 0, 96.15 -0.57, 96 0.78" stroke="#1e1e1e" stroke-width="2" fill="none"></path></g><g transform="translate(58.07207578201269 92.53082036911701) rotate(0 -11.060831595861146 9.359165196497543)" stroke="none"><path fill="#1e1e1e" d="M -2.12,4.67 Q -2.12,4.67 -3.50,4.14 -4.88,3.61 -7.01,2.94 -9.13,2.28 -11.61,2.54 -14.09,2.80 -14.40,5.16 -14.70,7.52 -15.05,10.20 -15.39,12.87 -14.73,14.99 -14.07,17.12 -15.09,15.93 -16.12,14.73 -14.94,14.93 -13.76,15.13 -12.71,15.70 -11.66,16.26 -10.84,17.14 -10.03,18.01 -9.53,19.09 -9.03,20.18 -8.91,21.37 -8.79,22.56 -9.05,23.72 -9.32,24.89 -9.94,25.91 -10.56,26.93 -11.48,27.70 -12.39,28.47 -13.50,28.90 -14.61,29.34 -15.81,29.39 -17.00,29.45 -18.15,29.13 -19.30,28.80 -20.28,28.12 -21.27,27.45 -21.99,26.49 -22.70,25.54 -23.08,24.40 -23.45,23.27 -23.45,22.07 -23.44,20.88 -23.05,19.75 -22.66,18.62 -21.94,17.67 -21.21,16.73 -20.21,16.06 -19.22,15.40 -18.07,15.08 -16.92,14.77 -15.72,14.84 -14.53,14.91 -13.42,15.36 -12.32,15.81 -11.41,16.59 -10.51,17.37 -9.90,18.40 -9.29,19.42 -9.04,20.59 -8.79,21.76 -8.92,22.95 -9.06,24.13 -9.57,25.22 -10.07,26.30 -10.90,27.16 -11.73,28.02 -12.79,28.57 -13.84,29.13 -15.02,29.31 -16.20,29.50 -16.20,29.50 -16.20,29.50 -20.66,27.10 -25.12,24.70 -26.45,22.47 -27.77,20.24 -28.54,17.35 -29.31,14.45 -29.19,12.20 -29.07,9.95 -28.83,7.77 -28.60,5.60 -28.03,3.27 -27.47,0.94 -26.41,-1.79 -25.36,-4.53 -22.99,-6.78 -20.62,-9.04 -17.70,-9.34 -14.78,-9.65 -12.60,-9.49 -10.42,-9.33 -7.78,-8.85 -5.13,-8.37 -2.81,-7.21 -0.49,-6.06 0.81,-5.36 2.12,-4.67 2.65,-4.35 3.18,-4.02 3.61,-3.59 4.05,-3.15 4.37,-2.62 4.68,-2.08 4.87,-1.49 5.05,-0.90 5.08,-0.28 5.12,0.32 5.00,0.93 4.89,1.54 4.63,2.10 4.38,2.67 3.99,3.15 3.61,3.64 3.12,4.02 2.63,4.40 2.07,4.65 1.50,4.90 0.89,5.01 0.29,5.12 -0.32,5.08 -0.94,5.04 -1.53,4.85 -2.12,4.67 -2.12,4.67 L -2.12,4.67 Z"></path></g><g transform="translate(96.35956976768557 41.05541178837893) rotate(0 -0.8508331996818015 14.464164394587442)" stroke="none"><path fill="#1e1e1e" d="M 5.20,0.43 Q 5.20,0.43 5.16,1.90 5.13,3.38 5.07,6.13 5.01,8.89 4.93,11.02 4.85,13.16 4.96,15.47 5.08,17.79 4.99,20.13 4.90,22.48 4.98,25.70 5.05,28.92 4.87,30.00 4.70,31.08 4.18,32.05 3.67,33.01 2.88,33.76 2.08,34.52 1.09,34.97 0.10,35.43 -0.98,35.55 -2.06,35.67 -3.13,35.44 -4.20,35.20 -5.13,34.64 -6.07,34.07 -6.78,33.24 -7.49,32.41 -7.89,31.39 -8.30,30.38 -8.35,29.28 -8.41,28.19 -8.12,27.14 -7.83,26.09 -7.21,25.18 -6.60,24.28 -5.73,23.61 -4.86,22.95 -3.82,22.60 -2.79,22.26 -1.70,22.26 -0.60,22.26 0.42,22.61 1.46,22.95 2.33,23.62 3.20,24.28 3.81,25.18 4.43,26.09 4.72,27.14 5.01,28.19 4.95,29.29 4.89,30.38 4.49,31.39 4.08,32.41 3.37,33.24 2.67,34.07 1.73,34.64 0.79,35.20 -0.26,35.44 -1.33,35.67 -2.42,35.55 -3.51,35.43 -4.50,34.97 -5.49,34.51 -6.28,33.76 -7.08,33.01 -7.59,32.04 -8.10,31.08 -8.28,30.00 -8.45,28.92 -8.45,28.92 -8.45,28.92 -8.39,26.02 -8.33,23.13 -8.00,20.93 -7.68,18.74 -7.53,16.22 -7.38,13.70 -6.95,10.89 -6.53,8.08 -6.07,5.28 -5.62,2.48 -5.41,1.02 -5.20,-0.43 -5.08,-1.05 -4.95,-1.66 -4.68,-2.23 -4.40,-2.80 -4.00,-3.29 -3.61,-3.77 -3.10,-4.15 -2.60,-4.53 -2.02,-4.77 -1.44,-5.02 -0.81,-5.12 -0.19,-5.22 0.43,-5.16 1.05,-5.11 1.65,-4.91 2.25,-4.71 2.78,-4.37 3.31,-4.03 3.75,-3.58 4.18,-3.12 4.49,-2.58 4.81,-2.03 4.98,-1.42 5.16,-0.82 5.18,-0.19 5.20,0.43 5.20,0.43 L 5.20,0.43 Z"></path></g><g transform="translate(139.32664635160745 69.13290737787247) rotate(0 -17.442080593473293 42.11624338424008)" stroke="none"><path d="M-1.51 -0.47 C-6.42 4.49, -21.46 19.4, -29.24 29.12 C-37.03 38.84, -43.89 50.94, -48.2 57.83 C-52.51 64.73, -52.78 67.76, -55.08 70.49 C-57.39 73.22, -61.9 73.05, -62.02 74.2 C-62.14 75.35, -57.89 76.27, -55.81 77.41 C-53.73 78.55, -52.12 79.73, -49.54 81.04 C-46.96 82.34, -43.18 84.33, -40.33 85.24 C-37.47 86.14, -36.75 87.02, -32.4 86.46 C-28.06 85.9, -19.34 82.82, -14.27 81.86 C-9.2 80.89, -4.52 81.32, -1.97 80.65 C0.57 79.98, -3.22 80.78, 1.01 77.85 C5.24 74.93, 19.23 66.98, 23.42 63.11 C27.6 59.24, 25.79 60.01, 26.14 54.61 C26.48 49.22, 26.95 36.52, 25.48 30.72 C24.01 24.93, 18.66 23.14, 17.33 19.85 C16 16.55, 19.09 14.14, 17.48 10.97 C15.86 7.79, 9.76 2.65, 7.66 0.78 C5.55 -1.09, 4.94 -0.24, 4.84 -0.24" stroke="none" stroke-width="0" fill="#a5d8ff" fill-rule="evenodd"></path><path fill="#1e1e1e" d="M 4.15,3.26 Q 4.15,3.26 2.85,5.01 1.54,6.75 -0.76,9.43 -3.06,12.11 -5.70,15.16 -8.33,18.21 -10.96,21.25 -13.60,24.29 -15.95,27.07 -18.30,29.85 -20.61,32.58 -22.92,35.30 -24.90,37.98 -26.89,40.67 -28.64,42.76 -30.39,44.84 -32.32,47.28 -34.24,49.71 -35.51,51.55 -36.77,53.39 -38.04,55.18 -39.32,56.97 -41.40,59.48 -43.49,61.98 -44.72,64.24 -45.95,66.51 -47.58,68.85 -49.21,71.19 -50.58,72.96 -51.94,74.74 -53.49,76.89 -55.04,79.04 -53.85,76.68 -52.65,74.32 -54.30,71.17 -55.96,68.01 -54.17,69.45 -52.39,70.88 -50.38,72.08 -48.37,73.28 -45.68,74.11 -42.99,74.94 -40.13,75.53 -37.27,76.12 -34.93,76.33 -32.59,76.55 -29.87,76.61 -27.15,76.67 -24.31,76.69 -21.47,76.71 -19.22,76.46 -16.97,76.22 -14.71,75.75 -12.45,75.29 -10.30,74.81 -8.15,74.34 -5.26,73.48 -2.37,72.62 -0.28,71.18 1.81,69.74 4.20,67.83 6.59,65.92 8.50,64.50 10.42,63.09 12.49,61.44 14.56,59.80 16.30,58.19 18.05,56.59 17.74,53.82 17.43,51.05 17.40,48.32 17.36,45.58 17.36,43.22 17.37,40.85 17.22,38.51 17.06,36.17 16.42,33.90 15.77,31.62 14.95,29.32 14.12,27.01 13.62,24.50 13.12,22.00 11.83,19.38 10.54,16.77 9.45,14.57 8.35,12.37 5.95,10.31 3.55,8.25 3.55,8.22 3.54,8.19 2.33,7.81 1.12,7.42 0.10,6.67 -0.92,5.92 -1.65,4.88 -2.38,3.84 -2.74,2.63 -3.10,1.41 -3.06,0.14 -3.01,-1.12 -2.56,-2.31 -2.11,-3.50 -1.31,-4.48 -0.50,-5.46 0.56,-6.14 1.64,-6.81 2.87,-7.10 4.11,-7.40 5.37,-7.29 6.64,-7.17 7.80,-6.66 8.96,-6.14 9.90,-5.29 10.84,-4.43 11.45,-3.32 12.07,-2.21 12.30,-0.96 12.52,0.28 12.34,1.54 12.16,2.79 11.58,3.93 11.01,5.06 10.10,5.95 9.20,6.84 8.05,7.39 6.91,7.95 5.65,8.11 4.39,8.27 3.14,8.01 1.90,7.76 0.80,7.13 -0.29,6.49 -1.13,5.54 -1.97,4.59 -2.46,3.41 -2.95,2.24 -3.04,0.98 -3.13,-0.28 -2.82,-1.51 -2.50,-2.74 -1.80,-3.80 -1.11,-4.87 -0.11,-5.65 0.88,-6.44 2.07,-6.87 3.27,-7.29 4.54,-7.32 5.81,-7.34 5.81,-7.34 5.81,-7.34 9.07,-5.73 12.33,-4.12 14.04,-2.44 15.76,-0.76 17.90,1.34 20.03,3.46 21.69,5.71 23.34,7.96 24.67,10.62 26.00,13.28 26.97,15.55 27.93,17.82 28.18,19.96 28.43,22.11 29.27,24.40 30.10,26.69 30.70,28.97 31.29,31.25 32.04,34.13 32.79,37.01 32.80,39.52 32.82,42.02 32.83,44.43 32.83,46.83 32.81,49.44 32.79,52.06 32.56,54.22 32.32,56.38 31.74,58.94 31.15,61.50 30.25,63.57 29.36,65.64 27.89,67.30 26.42,68.96 24.23,70.94 22.05,72.92 20.09,74.45 18.12,75.97 16.14,77.57 14.16,79.17 11.29,81.12 8.42,83.07 6.38,84.37 4.34,85.68 1.66,86.70 -1.01,87.72 -3.32,88.39 -5.64,89.05 -7.90,89.47 -10.16,89.89 -13.60,90.62 -17.04,91.35 -19.25,91.55 -21.45,91.74 -24.34,91.75 -27.23,91.77 -29.99,91.72 -32.74,91.68 -35.17,91.47 -37.59,91.25 -40.77,90.83 -43.94,90.42 -46.33,89.76 -48.71,89.10 -51.27,88.21 -53.83,87.31 -55.82,86.11 -57.80,84.91 -60.07,83.27 -62.34,81.64 -64.06,80.18 -65.78,78.72 -66.31,74.83 -66.84,70.93 -65.04,68.71 -63.25,66.50 -61.53,64.58 -59.81,62.67 -58.71,60.50 -57.61,58.34 -56.35,56.42 -55.09,54.51 -53.61,52.64 -52.12,50.77 -50.27,48.68 -48.42,46.58 -46.81,44.60 -45.20,42.62 -43.41,40.52 -41.62,38.42 -39.91,36.46 -38.21,34.49 -36.47,32.62 -34.73,30.75 -32.24,27.63 -29.75,24.51 -27.26,21.82 -24.78,19.14 -22.16,16.31 -19.53,13.49 -18.04,11.77 -16.54,10.04 -14.02,7.32 -11.50,4.60 -9.21,2.35 -6.92,0.09 -5.54,-1.58 -4.15,-3.26 -3.70,-3.71 -3.25,-4.16 -2.71,-4.49 -2.16,-4.82 -1.55,-5.01 -0.94,-5.20 -0.30,-5.24 0.32,-5.27 0.95,-5.16 1.58,-5.04 2.16,-4.78 2.74,-4.52 3.24,-4.12 3.74,-3.73 4.13,-3.23 4.53,-2.72 4.79,-2.14 5.05,-1.56 5.16,-0.93 5.28,-0.31 5.24,0.32 5.20,0.96 5.01,1.56 4.82,2.17 4.48,2.72 4.15,3.26 4.15,3.26 L 4.15,3.26 Z"></path></g></svg>